<?xml version="1.0" standalone="no"?>
<!DOCTYPE svg PUBLIC "-//W3C//DTD SVG 1.1//EN" "http://www.w3.org/Graphics/SVG/1.1/DTD/svg11.dtd" >
<!--
2013-9-30: Created.
-->
<svg>
<metadata>
Created by iconfont
</metadata>
<defs>

<font id="iconfont" horiz-adv-x="1024" >
  <font-face
    font-family="iconfont"
    font-weight="500"
    font-stretch="normal"
    units-per-em="1024"
    ascent="896"
    descent="-128"
  />
    <missing-glyph />
    
    <glyph glyph-name="chuizhiduiqi" unicode="&#59412;" d="M812.8 92H211.2c-32 0-57.6 25.6-57.6 57.6V283.20000000000005c0 32 25.6 57.6 57.6 57.6h601.6c32 0 57.6-25.6 57.6-56.8v-134.4c0-32-25.6-57.6-57.6-57.6zM211.2 292.79999999999995c-4.8 0-9.6-4.8-9.6-9.6v-133.6c0-4.8 4.8-9.6 9.6-9.6h601.6c4.8 0 9.6 4.8 9.6 9.6V284c0 4.8-4 8.8-9.6 8.8H211.2z m468 133.6H344.8c-32 0-57.6 25.6-57.6 57.6V617.6c0 32 25.6 57.6 57.6 57.6h334.4c32 0 57.6-25.6 57.6-57.6v-133.6c0-32-25.6-57.6-57.6-57.6zM344.8 627.2c-4.8 0-9.6-4.8-9.6-9.6v-133.6c0-4.8 4.8-9.6 9.6-9.6h334.4c4.8 0 9.6 4.8 9.6 9.6V617.6c0 4.8-4.8 9.6-9.6 9.6H344.8zM512 627.2c-13.6 0-24 10.4-24 24V766.4c0 13.6 10.4 24 24 24s24-10.4 24-24v-115.2c0-13.6-10.4-24-24-24zM512 308c-13.6 0-24 10.4-24 24V447.2c0 13.6 10.4 24 24 24s24-10.4 24-24v-115.2c0-13.6-10.4-24-24-24zM512-25.600000000000023c-13.6 0-24 10.4-24 24V112.79999999999995c0 13.6 10.4 24 24 24s24-10.4 24-24v-114.4c0-13.6-10.4-24-24-24z"  horiz-adv-x="1024" />

    
    <glyph glyph-name="shuipingduiqi" unicode="&#59414;" d="M413.6 23.200000000000045H280c-32 0-57.6 25.6-57.6 57.6V682.4c0 32 25.6 57.6 57.6 57.6h133.6c32 0 57.6-25.6 57.6-56.8v-602.4c0-32-25.6-57.6-57.6-57.6zM280 692c-4.8 0-9.6-4.8-9.6-9.6v-601.6c0-4.8 4.8-9.6 9.6-9.6h133.6c4.8 0 9.6 4.8 9.6 9.6V683.2c0 4.8-4 8.8-9.6 8.8H280z m468-535.2H614.4c-32 0-57.6 25.6-57.6 57.6V548.8c0 32 25.6 57.6 57.6 57.6h133.6c31.2 0 56-24.8 57.6-56v-336c0-32-25.6-57.6-57.6-57.6zM614.4 558.4c-4.8 0-9.6-4.8-9.6-9.6v-334.4c0-4.8 4.8-9.6 9.6-9.6h133.6c4.8 0 9.6 4.8 9.6 9.6V548.8c-0.8 5.6-4 9.6-9.6 9.6H614.4zM896 358.4H780.8c-13.6 0-24 10.4-24 24s10.4 24 24 24H896c13.6 0 24-10.4 24-24s-10.4-24-24-24zM576.8 358.4H462.4c-13.6 0-24 10.4-24 24s10.4 24 24 24h114.4c13.6 0 24-10.4 24-24s-10.4-24-24-24zM243.2 358.4H128c-13.6 0-24 10.4-24 24s10.4 24 24 24h115.2c13.6 0 24-10.4 24-24s-10.4-24-24-24z"  horiz-adv-x="1024" />

    
    <glyph glyph-name="wenjian" unicode="&#58982;" d="M855.4 550.2L615.9 789.5c-5.3 5.3-12.4 8.2-19.9 8.2H174.4c-7.8 0-14.1-6.3-14.1-14.1v-801.8c0-7.8 6.3-14.1 14.1-14.1h675.2c7.8 0 14.1 6.3 14.1 14.1V530.3c0 7.4-3 14.6-8.3 19.9z m-52.9-514.8h-581V730.2h376.6v-204.1h204.3l0.1-490.7zM503.5 431.5H297.1c-14.9 0-27 12.2-27 27v2c0 14.9 12.2 27 27 27h206.5c14.9 0 27-12.2 27-27v-2c0-14.8-12.2-27-27.1-27zM568.7 331.7H297.1c-14.9 0-27 12.2-27 27v2c0 14.9 12.2 27 27 27h271.6c14.9 0 27-12.2 27-27v-2c0-14.9-12.2-27-27-27zM633.8 231.9H297.1c-14.9 0-27 12.2-27 27v2c0 14.9 12.2 27 27 27h336.7c14.9 0 27-12.2 27-27v-2c0-14.9-12.1-27-27-27zM698.9 132.1H297.1c-14.9 0-27 12.2-27 27v2c0 14.9 12.2 27 27 27H699c14.9 0 27-12.2 27-27v-2c-0.1-14.9-12.2-27-27.1-27z"  horiz-adv-x="1024" />

    
    <glyph glyph-name="world" unicode="&#58896;" d="M964.82304 575.9647288888889c-24.758044444444447 58.53411555555555-60.192995555555555 111.09603555555556-105.32181333333332 156.2248533333333-45.12767999999999 45.128817777777776-97.6896 80.5637688888889-156.22371555555554 105.32181333333332-60.6208 25.640960000000003-124.9939911111111 38.64120888888889-191.33326222222223 38.64120888888889S381.2317866666667 863.1523555555555 320.61098666666663 837.5113955555555c-58.53411555555555-24.758044444444447-111.09603555555556-60.192995555555555-156.2248533333333-105.32181333333332-45.128817777777776-45.128817777777776-80.5637688888889-97.6896-105.32181333333332-156.2248533333333-25.640960000000003-60.6208-38.64120888888889-124.9939911111111-38.64120888888889-191.33326222222223s13.000248888888889-130.71246222222223 38.64120888888889-191.33326222222223c24.758044444444447-58.53297777777777 60.192995555555555-111.09603555555556 105.32181333333332-156.22371555555554 45.128817777777776-45.128817777777776 97.6896-80.56490666666667 156.2248533333333-105.32181333333332 60.6208-25.63982222222222 124.9939911111111-38.64120888888889 191.33326222222223-38.64120888888889s130.71246222222223 13.001386666666665 191.33326222222223 38.64120888888889c58.53297777777777 24.758044444444447 111.09603555555556 60.192995555555555 156.22371555555554 105.32181333333332 45.128817777777776 45.12767999999999 80.56490666666667 97.6896 105.32181333333332 156.22371555555554 25.63982222222222 60.6208 38.64120888888889 124.9939911111111 38.64120888888889 191.33326222222223s-13.001386666666665 130.71246222222223-38.64120888888889 191.33326222222223zM548.3531377777778 538.7036444444444c19.990755555555555 0.27648 39.93031111111111 0.7771022222222222 59.77429333333333 1.55648a2265.0447644444444 2265.0447644444444 0 0 1 103.68682666666666 6.460302222222222c11.556408888888889-39.11452444444444 18.936035555555556-81.13948444444443 22.06037333333333-125.67893333333333H548.3531377777778V538.7036444444444z m0 72.89628444444445V780.6179555555556c20.044231111111113-13.853582222222222 44.79658666666667-33.95697777777777 69.48864-61.66414222222222 26.646755555555558-29.9008 49.04846222222223-63.872568888888885 66.88312888888889-101.28384000000001-47.71498666666666-3.5805866666666666-93.43089777777779-5.441991111111111-136.37176888888888-6.070044444444445z m-72.81777777777778 164.70812444444445v-164.64213333333333a2319.4419199999998 2319.4419199999998 0 0 0-117.65759999999997 4.902684444444445 2195.4559999999997 2195.4559999999997 0 0 0-12.723768888888888 0.8942933333333334c17.28853333333333 36.31217777777777 38.88355555555555 69.39420444444445 64.48469333333333 98.65784888888888 23.07868444444444 26.379377777777776 46.332586666666664 46.068622222222224 65.89667555555556 60.18730666666667zM351.39356444444445 544.0238933333334a2416.9824711111114 2416.9824711111114 0 0 1 124.14179555555555-5.240604444444444v-117.74179555555554H296.1066666666667c3.1197866666666663 44.46321777777778 10.476657777777778 86.42559999999999 21.998933333333337 125.47982222222221 10.755413333333333-0.8829155555555556 21.85671111111111-1.72032 33.28796444444445-2.4974222222222218z m-128.26282666666665-122.9824H94.82467555555553c4.455537777777778 52.061297777777774 18.44110222222222 102.14741333333335 41.11815111111112 148.2251377777778 23.047964444444446-4.070968888888888 60.115626666666664-9.965795555555555 108.55196444444444-15.520426666666665-11.266275555555554-41.75530666666666-18.41152-86.10929777777778-21.364053333333334-132.70471111111112z m-0.9773511111111111-72.81777777777778c2.2471111111111113-44.53717333333333 11.050097777777777-89.02200888888889 26.283804444444446-132.89130666666665-50.168035555555555-5.661582222222222-88.51569777777777-11.74072888888889-112.20878222222221-15.919786666666667-22.846577777777775 46.239288888888886-36.92999111111111 96.53020444444444-41.403733333333335 148.81223111111112h127.3287111111111z m72.92928 0h180.45269333333331v-118.38350222222222c-41.38097777777777-0.6849422222222222-82.85070222222222-2.423466666666666-124.14179555555555-5.234915555555554-9.56871111111111-0.6519466666666667-18.900764444444444-1.3448533333333332-27.999573333333334-2.071893333333333-16.29525333333333 41.555057777777776-25.780906666666667 83.67559111111112-28.311324444444438 125.6903111111111z m180.45269333333331-191.2638577777778v-149.85898666666665c-19.31264 18.064497777777778-41.61308444444444 40.916764444444446-63.75879111111111 67.96515555555555-20.552817777777776 25.10392888888889-38.56156444444445 50.85639111111111-53.90677333333333 76.99114666666668a2319.2234666666664 2319.2234666666664 0 0 0 117.66556444444444 4.902684444444445z m72.81777777777778-155.49439999999998V157.02812444444453c39.124764444444445-0.5723022222222222 80.53418666666667-2.165191111111111 123.6536888888889-5.15072-15.322453333333334-26.072177777777775-33.29479111111111-51.76433777777777-53.80096-76.81024000000001-24.51569777777778-29.94631111111111-49.222542222222216-54.748728888888884-69.85272888888888-73.60170666666666z m59.77429333333333 226.90247111111108a2347.4483199999995 2347.4483199999995 0 0 1-59.77429333333333 1.5746844444444443V348.2237155555556h186.54776888888887c-2.533831111111111-42.069333333333326-12.039964444444445-84.24675555555557-28.375040000000002-125.85528888888886a2269.834808888889 2269.834808888889 0 0 1-98.39843555555557 5.999502222222222z m199.70389333333333 119.85578666666667H929.0638222222221c-4.469191111111111-52.22172444444445-18.526435555555558-102.45802666666667-41.32636444444445-148.65294222222218a2073.9868444444446 2073.9868444444446 0 0 1-106.35491555555556 15.290595555555555c15.334968888888888 44.02176 24.193706666666667 88.66588444444444 26.44878222222222 133.36234666666667z m-0.9773511111111111 72.81777777777778c-2.963911111111111 46.77518222222221-10.15352888888889 91.29301333333333-21.493759999999998 133.18940444444445a2072.4519822222223 2072.4519822222223 0 0 1 102.66510222222223 14.876444444444443c22.6304-46.03448888888889 36.58865777777778-96.06485333333333 41.03964444444444-148.0658488888889H806.8539733333334z m1.15712 259.6579555555556a424.60501333333326 424.60501333333326 0 0 0 38.736782222222224-44.54968888888889 2017.1127466666667 2017.1127466666667 0 0 0-85.46645333333333-11.355022222222223c-22.219662222222222 53.230933333333326-52.138666666666666 101.15982222222222-89.07775999999998 142.60679111111108a482.2619022222221 482.2619022222221 0 0 1-6.12807111111111 6.743608888888888c52.54826666666667-20.779235555555555 100.7763911111111-52.28657777777777 141.93550222222223-93.4456888888889zM367.2860444444444 777.75872a478.7632355555555 478.7632355555555 0 0 1-9.506133333333334-10.356053333333334c-37.03694222222222-41.55733333333333-67.01966222222222-89.62844444444445-89.25752888888888-143.03004444444443-36.81507555555555 3.964017777777777-67.67502222222222 8.242062222222222-91.27936 11.911395555555554a424.8302933333334 424.8302933333334 0 0 0 38.63438222222223 44.415431111111104c43.62012444444444 43.62012444444444 95.17966222222222 76.40405333333334 151.40864000000002 97.0592711111111zM215.87740444444444 88.56575999999995a424.89628444444446 424.89628444444446 0 0 0-38.211128888888894 43.859057777777785c25.629582222222222 3.9799466666666667 59.76632888888889 8.663039999999999 100.83669333333334 12.888746666666666 20.74055111111111-40.43889777777778 47.001599999999996-80.04949333333332 78.35534222222222-118.11043555555557a771.4907022222221 771.4907022222221 0 0 1 40.64938666666666-45.50542222222222c-67.99018666666666 19.2-130.30286222222222 55.53948444444444-181.63029333333333 106.86805333333334z m418.9855288888889-104.38542222222222a770.3119644444445 770.3119644444445 0 0 1 38.26232888888889 43.02392888888889c31.25361777777778 37.93806222222222 57.44298666666667 77.41781333333333 78.15281777777777 117.72131555555555a2025.6028444444446 2025.6028444444446 0 0 0 95.03630222222223-12.379022222222224 424.77795555555554 424.77795555555554 0 0 0-38.303288888888886-43.97966222222223c-49.18613333333333-49.18840888888889-108.45752888888889-84.61994666666668-173.14816000000002-104.38655999999999z"  horiz-adv-x="1024" />

    
    <glyph glyph-name="ziyuanmulu" unicode="&#58967;" d="M284.785607 698.466767h102.86057c15.864068 0 28.145927-10.234883 28.145927-22.516742v-5.629185c0-12.793603-12.793603-22.516742-28.145927-22.516742H284.785607c-15.864068 0-28.145927 10.234883-28.145927 22.516742V675.950025c-0.511744 12.281859 12.281859 22.516742 28.145927 22.516742zM635.842079 698.466767h102.86057c15.864068 0 28.145927-10.234883 28.145927-22.516742v-5.629185c0-12.793603-12.793603-22.516742-28.145927-22.516742h-102.86057c-15.864068 0-28.145927 10.234883-28.145927 22.516742V675.950025c-0.511744 12.281859 12.281859 22.516742 28.145927 22.516742zM284.785607 570.530735h102.86057c15.864068 0 28.145927-10.234883 28.145927-22.516742v-5.629185c0-12.793603-12.793603-22.516742-28.145927-22.516742H284.785607c-15.864068 0-28.145927 10.234883-28.145927 22.516742V548.013993c-0.511744 12.793603 12.281859 22.516742 28.145927 22.516742zM635.842079 570.530735h102.86057c15.864068 0 28.145927-10.234883 28.145927-22.516742v-5.629185c0-12.793603-12.793603-22.516742-28.145927-22.516742h-102.86057c-15.864068 0-28.145927 10.234883-28.145927 22.516742V548.013993c-0.511744 12.793603 12.281859 22.516742 28.145927 22.516742zM284.785607 443.106447h102.86057c15.864068 0 28.145927-10.234883 28.145927-22.516742V414.96052c0-12.793603-12.793603-22.516742-28.145927-22.516742H284.785607c-15.864068 0-28.145927 10.234883-28.145927 22.516742v5.629185c-0.511744 12.281859 12.281859 22.516742 28.145927 22.516742zM635.842079 443.106447h102.86057c15.864068 0 28.145927-10.234883 28.145927-22.516742V414.96052c0-12.793603-12.793603-22.516742-28.145927-22.516742h-102.86057c-15.864068 0-28.145927 10.234883-28.145927 22.516742v5.629185c-0.511744 12.281859 12.281859 22.516742 28.145927 22.516742zM284.785607 315.68215899999996h102.86057c15.864068 0 28.145927-10.234883 28.145927-22.516742v-5.629185c0-12.793603-12.793603-22.516742-28.145927-22.516742H284.785607c-15.864068 0-28.145927 10.234883-28.145927 22.516742v5.629185c-0.511744 12.281859 12.281859 22.516742 28.145927 22.516742zM635.842079 315.68215899999996h102.86057c15.864068 0 28.145927-10.234883 28.145927-22.516742v-5.629185c0-12.793603-12.793603-22.516742-28.145927-22.516742h-102.86057c-15.864068 0-28.145927 10.234883-28.145927 22.516742v5.629185c-0.511744 12.281859 12.281859 22.516742 28.145927 22.516742zM981.781109 832.031984h-86.996501V855.06047c0 22.516742-18.422789 40.93953-40.939531 40.93953h-86.996501c-149.429285 0-221.073463-52.197901-255.36032-102.348826-34.286857 50.150925-105.931034 102.348826-254.848576 102.348826h-86.996502c-22.516742 0-40.93953-18.422789-40.93953-40.93953v-23.028486h-86.996502c-22.516742 0-40.93953-18.422789-40.93953-40.93953v-812.137931c0-22.516742 18.422789-40.93953 40.93953-40.93953H256.127936c175.528236 0 220.561719-47.592204 223.632184-66.014993v2.046977h63.968016v-2.046977c2.046977 18.934533 47.592204 66.014993 223.632184 66.014993h214.420789c22.516742 0 40.93953 18.422789 40.939531 40.93953V791.092454c0 22.516742-18.422789 40.93953-40.939531 40.93953zM256.127936-11.322339000000056H89.29935c-17.3993 0-31.728136 14.328836-31.728136 31.728136V750.664668c0 17.3993 14.328836 31.728136 31.728136 31.728136h34.286857V97.67916000000002c0-23.54023 18.934533-42.474763 42.474763-42.474762H256.127936c165.293353 0 212.885557-68.573713 225.67916-106.954523-44.009995 23.028486-113.607196 40.427786-225.67916 40.427786z m234.378811 46.056972c-44.521739 39.404298-118.212894 71.644178-239.496252 71.644178h-35.822089c-17.911044 0-32.751624 14.84058-32.751624 32.751624V827.426287C182.436782 845.337331 197.277361 860.177911 215.188406 860.177911h35.822089c236.937531 0 239.496252-135.612194 239.496252-137.147426v-688.295852z m42.474762 0V723.542229c0 1.023488 2.558721 137.147426 239.496252 137.147426h35.822089c17.911044 0 32.751624-14.84058 32.751624-32.751624v-687.784108c0-17.911044-14.84058-32.751624-32.751624-32.751624H772.989505c-121.795102-1.023488-195.486257-32.751624-240.007996-72.667666z m432.935532-14.328836c0-17.3993-14.328836-31.728136-31.728135-31.728136H767.872064c-112.583708 0-182.18091-17.911044-225.67916-40.93953 13.305347 38.892554 60.385807 106.954523 225.67916 106.954523h90.066966c23.54023 0 42.474763 18.934533 42.474763 42.474762v685.737132h34.286857c17.3993 0 31.728136-14.328836 31.728136-31.728136V20.91754100000003h-0.511745z"  horiz-adv-x="1024" />

    
    <glyph glyph-name="point-10" unicode="&#58897;" d="M512 774.49653835a390.62670384 390.62670384 0 0 0 0-780.9930767 390.49653835 390.49653835 0 0 0 0 780.9930767z"  horiz-adv-x="1024" />

    
    <glyph glyph-name="zhuanfafuwuqi" unicode="&#59107;" d="M543.4 721.2h227V648h-227zM131.4 740.5h62.9v-111.9h-62.9zM237.4 740.5h62.9v-111.9h-62.9zM131.4 192.7h62.9v-111.9h-62.9zM237.4 192.7h62.9v-111.9h-62.9zM565.5 374c33.6 33.7 75.5 59.2 122.3 73.2H543.4V374h22.1zM131.4 466.6h62.9v-111.9h-62.9zM237.4 466.6h62.9v-111.9h-62.9zM62.9 36.5V236.9h426.6c6.4 26.1 16.3 50.7 29.2 73.5H62.9V510.8h768.2v-58c22-4.5 43-11.4 62.9-20.5v78.6c0 13.4-3.1 26-8.5 36.8 5.4 10.8 8.5 23.4 8.5 36.8V784.8c0 40.4-28.1 73.2-62.9 73.2H62.9C28.1 858 0 825.2 0 784.8v-200.4c0-13.4 3.1-26 8.5-36.8C3.1 536.8 0 524.2 0 510.8v-200.4c0-13.4 3.1-26 8.5-36.8C3.1 262.9 0 250.3 0 236.9v-200.4c0-40.4 28.1-73.2 62.9-73.2h500.8c-20.9 21.5-38.5 46.2-52 73.2H62.9z m0 748.3h768.2v-200.4H62.9V784.8zM760.4 437.7c-145.3 0-263.6-118.3-263.6-263.9 0-145.4 118.2-263.9 263.6-263.9 145.5 0 263.6 118.3 263.6 263.9 0 145.7-118.3 263.9-263.6 263.9z m189.7-158.2l-79.1 0.2c-5 26.8-11.9 51.5-20.6 73.1-3.3 8.6-7.1 16.4-11 23.6 47.1-18.4 86.3-53 110.7-96.9zM760.4 391.2c21 0 48.5-41.5 63.2-111.6l-126.3 0.2c14.6 70.2 42.3 111.4 63.1 111.4zM552.1 112.7c-5.8 19.3-8.7 40-8.7 61.2-0.2 20.8 2.8 40.7 8.2 59.7l91.8-0.2c-1.9-19.3-2.8-39.2-2.8-59.5 0-19.3 0.9-38.3 2.6-56.9l-91 0.2v-4.5z m17.3-41.9l80.1-0.2c5-27.7 12.1-53.2 21-75.5 3.3-8.6 7.1-16.4 11-23.6-48 18.8-87.8 54.3-112.1 99.3z m101 282c-8.7-21.6-15.6-46.1-20.6-72.9l-79 0.2c24.5 43.5 63.5 77.9 110.5 96.3-3.8-7.3-7.3-15.3-10.9-23.6z m90-396.1c-21.2 0-49 42.2-63.7 114l127.3-0.2c-14.6-71.6-42.5-113.8-63.6-113.8zM831.1 117l-141.4 0.2c-1.9 17.9-2.8 36.8-2.8 56.9 0 21 1.1 40.9 3.2 59.5l140.8-0.2c2-18.4 3-38.3 3-59.3 0-20.3-0.9-39.3-2.8-57.1z m8.2-145.5c3.9 7.3 7.4 15.2 11 23.6 8.9 22.1 16 47.6 21 75.1l79.9-0.2c-24.4-44.5-63.9-79.7-111.9-98.5z m38.5 145.3c1.7 18.6 2.6 37.7 2.6 57.1 0 20.3-1.1 40.2-3 59.3l92-0.2c5.4-18.8 8.2-38.7 8.2-59.1 0-19.9-2.6-39-7.6-57.3l-92.2 0.2z"  horiz-adv-x="1024" />

    
    <glyph glyph-name="ditu" unicode="&#58977;" d="M522.860324 895.881072a511.861776 511.861776 0 1 1 0-1023.644792A511.861776 511.861776 0 0 1 522.860324 895.881072z m441.686542-548.879015c-10.868891-0.31504-22.682904-14.964416-35.599557-10.553851-20.320101 6.930887-5.828246-64.346987-7.560968-109.476514-1.732722-45.287047-15.594496-34.811956-45.208287-36.544679-29.535031-1.732722-12.129053 43.396805-6.930887 100.812906 5.198165 57.33734-24.336865 50.406453-69.545153 94.197059-45.208287 43.790606-50.406453 15.279456-99.080184-14.176815-48.673731-29.613791-48.673731 33.000475-95.61474 52.060414-46.941009 19.1387 0 57.4161 5.198165 102.624388 5.276926 45.208287 34.811956 19.05994 76.5548 19.05994s168.546577 10.475091 217.299068 13.940534c13.625494 0.945121 20.792662 3.229163 23.549265 6.064527a441.686543 441.686543 0 0 0 37.017238-218.007909z m-42.057884 228.95556a81.910486 81.910486 0 0 1-28.90495 10.790132c-25.833307 4.489325-17.327218 10.475091-39.931362 41.742843-22.604144 31.267753-22.604144 0-45.208287-33.079234-22.604144-33.000475-33.079235-6.930887-36.544678 22.604143-3.465444 29.613791-10.396331 24.415626-58.755022 41.742844-48.358691 17.327218 1.417681-22.604144-28.117349-60.802784-29.613791-38.2774-48.752491 0-59.148822 25.990828-10.396331 26.148347 45.208287 71.356635 78.208762 121.763087 33.079235 50.406453-29.535031 29.535031-108.846434 13.861775-79.311403-15.594496 2.835363 45.208287 0 60.881543a443.813065 443.813065 0 0 0 327.248142-245.495177zM486.709446 825.863359a51.981654 51.981654 0 0 1-1.575202-14.806896c1.732722-71.277875-20.871422-90.416575-39.931362-120.502926-19.1387-30.165112-26.148347-22.052823-43.475565-6.458327-17.405978 15.673256 0 0-29.613791-19.1387-29.535031-19.05994-20.792662-27.802309-31.267753-17.327218-10.396331 10.396331-24.336865-34.811956-27.802309-86.63609-3.465444-51.745374-5.198165-29.928831-8.663609-55.132058-3.544204-25.203226-10.475091-7.797248-31.346513-11.262692-20.871422-3.465444-34.733196 10.475091-55.604618 11.341452-20.871422 0.787601-10.396331 26.935948-20.871422 49.540092-10.396331 22.604144-24.336865-29.535031-33.079235-49.618852-8.663609-19.926301 7.009647-32.134114 26.148348-44.263167 19.1387-12.207813 24.336865-1.732722 27.802309-17.327218 3.465444-15.752016 27.802309-1.811482 20.871422-43.554325-6.930887-41.742844 20.871422-25.990827 20.871422-25.990828 34.024356 50.721493 60.802784 52.060415 60.802783 52.060415 19.1387 15.752016 55.683378 0 73.010597-31.267753 17.405978-31.267753 88.683853-90.416575 149.565396-97.347462 60.802784-6.930887 53.871896-38.19864 20.792662-73.010596-33.000475-34.733196-107.743793-201.625811-128.615215-238.17049-20.871422-36.465918-93.882018-24.336865-86.951131 12.207813 7.009647 36.465918 13.940535 118.140124-36.465918 154.684802-50.406453 36.544678-46.941009 43.475566-60.881544 103.884549-13.861775 60.408983-38.19864 97.820022-88.605092 116.879962-33.709315 12.759133-62.693026 47.256049-78.287522 68.757552A443.419264 443.419264 0 0 0 486.709446 825.863359z"  horiz-adv-x="1034" />

    
    <glyph glyph-name="map-area" unicode="&#58968;" d="M613.99 550.892l-76.783 76.784-38.393-38.417 76.809-76.783 38.366 38.416z m95.992 57.576l-95.993 95.992-38.366-38.416 95.99-95.942 38.369 38.366z m-249.558-211.19l-76.784 76.831-38.416-38.416 76.807-76.782 38.393 38.366z m95.991 57.623l-95.991 95.991-38.393-38.416L518 416.485l38.416 38.416z m400.876-424.923l-76.539 242.52c-7.282 23.069-28.103 38.074-52.834 38.074H715.602v-26.93h64.613c21.701 0 39.98-12.708 46.384-32.21l39.54-178.297c9.58-29.325-13.735-58.992-46.383-58.992H204.61c-32.649 0-55.963 29.667-46.36 58.992l39.517 178.298c0.073 0.243 0.17 0.44 0.244 0.683l1.784 4.449c0.024 0.049 0.024 0.098 0.049 0.098h-0.88v18.11l203.859-203.837c10.607-10.606 27.786-10.606 38.392 0l460.748 460.749c10.607 10.605 10.607 27.81 0 38.416L671.613 800.45c-10.654 10.606-27.81 10.606-38.415 0L172.449 339.702c-9.689-9.69-10.52-24.88-2.508-35.523-12.375-6.485-21.89-17.555-26.329-31.632L67.098 29.977999999999952c-5.352-16.91-2.42-33.626 8.357-47.85 10.777-14.27 26.295-21.895 44.452-21.895h784.549c18.182 0 33.675 7.624 44.477 21.895 10.754 14.224 13.686 30.94 8.358 47.85zM249.233 339.702l19.208 19.209L633.2 723.668c10.605 10.606 27.761 10.606 38.416 0L825.18 570.102c10.606-10.606 10.606-27.81 0-38.416L441.216 147.72000000000003c-10.606-10.606-27.785-10.606-38.392 0L249.233 301.28499999999997c-10.607 10.607-10.607 27.81 0 38.417z m153.59-38.417l-95.991 95.992-38.392-38.366 95.992-95.993 38.39 38.367z"  horiz-adv-x="1024" />

    
    <glyph glyph-name="shuqian" unicode="&#59310;" d="M595.46-64a88.22 88.22 0 0 0-62.9 25.74l-27.76 27.69Q303.35 190.5 102.4 392.08c-13.93 14.1-30.66 33.48-36.09 58.83a96 96 0 0 0-2.17 19.72q-0.25 138.23-0.08 276.4c0.06 47.8 36 84.24 83.52 84.74 17.86 0.23 96.48 0.23 96.48 0.23h176.8c21.93 0 41.33-6.8 61.76-21.51 16.53-11.92 30.46-25.91 45.23-40.73L932.7 365.17c28.15-28.17 35.3-70.31 17.84-104.91a89.82 89.82 0 0 0-16.58-23Q796.63 99.27 658.89-38a89.11 89.11 0 0 0-63.43-26zM149.95 772.44c-16.14 0-26.56-10-26.56-25.41-0.11-107.58-0.08-195.39 0.11-276.29 0-3.57 0.75-8.58 2.9-11.87 5.8-9.08 12.37-19.33 20.48-27.41C263 315 572 6.14 572 6.14c7-7 15.16-10.75 23.47-10.75s16.61 3.79 23.74 11l75.91 75.94C758.88 146 824.6 211.79 889.64 276.14a34.95 34.95 0 0 1 0 48.53c-59.19 58.77-119.25 118.78-177.3 176.83L536.32 677c-8.22 8.19-16.3 16.66-24.13 24.85-21.57 22.56-41.75 43.68-66.19 61.23-8 5.68-15.27 9.53-25.17 9.53l-219.61-0.06z m225.32-366.88a115.34 115.34 0 0 0-114.88 115.33c0.28 63.07 51.86 114.33 115 114.33a114.55 114.55 0 0 0 114.86-115.83c-0.28-62.79-51.7-113.82-114.6-113.82z m0.45 185.14c-38.6 0-70.29-31.31-70.65-69.75a69.11 69.11 0 0 1 20.2-49.59 70.3 70.3 0 0 1 49.91-21.06c38.9 0 70.54 31.48 70.56 70.14A70.32 70.32 0 0 1 376 590.7z"  horiz-adv-x="1024" />

    
    <glyph glyph-name="xian" unicode="&#58970;" d="M43.7248-94.9248L984.9856 846.3872l-36.1984 36.1984L7.4752-58.6752z"  horiz-adv-x="1024" />

    
    <glyph glyph-name="fuwuqi" unicode="&#59160;" d="M430.4 43.2h-118.4c-113.6 0-206.4 96-206.4 212.8 0 118.4 92.8 212.8 206.4 212.8 12.8 0 24 11.2 24 24 0 150.4 121.6 272 272 272 88 0 168-41.6 220.8-112 8-11.2 22.4-12.8 33.6-4.8 11.2 8 12.8 22.4 4.8 33.6-59.2 81.6-156.8 131.2-259.2 131.2-168 0-307.2-131.2-318.4-297.6C160 504 57.6 392 57.6 256c0-144 113.6-260.8 254.4-260.8h118.4c12.8 0 24 11.2 24 24s-11.2 24-24 24zM910.4 526.4H576c-30.4 0-56-25.6-56-56V11.2c0-30.4 25.6-56 56-56h334.4c30.4 0 56 25.6 56 56V470.4c0 30.4-25.6 56-56 56z m8-515.2c0-4.8-3.2-8-8-8H576c-4.8 0-8 3.2-8 8v113.6h350.4v-113.6z m0 161.6H568v136h350.4v-136z m0 184H568v115.2c0 4.8 3.2 8 8 8h334.4c4.8 0 8-3.2 8-8v-115.2zM777.6 443.2c-16 0-30.4-14.4-30.4-30.4 0-16 14.4-30.4 30.4-30.4 16 0 30.4 12.8 30.4 30.4 0 16-14.4 30.4-30.4 30.4zM777.6 209.6c16 0 30.4 14.4 30.4 30.4 0 16-14.4 30.4-30.4 30.4-16 0-30.4-12.8-30.4-30.4 0-17.6 12.8-30.4 30.4-30.4zM777.6 35.2c16 0 30.4 14.4 30.4 30.4 0 16-14.4 30.4-30.4 30.4-16 0-30.4-14.4-30.4-30.4 0-17.6 12.8-30.4 30.4-30.4z"  horiz-adv-x="1024" />

    
    <glyph glyph-name="mian2" unicode="&#58987;" d="M126.13632 896H735.6416a20.48 20.48 0 0 0 19.8656-15.42144L1005.1584-99.16416a20.48 20.48 0 0 0-22.2208-25.3952L30.4128-13.68064a20.48 20.48 0 0 0-18.0224 22.528L105.79968 877.71136A20.48 20.48 0 0 0 126.11584 896z"  horiz-adv-x="1024" />

    
    <glyph glyph-name="celiang" unicode="&#58971;" d="M599.25 774.5c21.3-6.7 45.4-2.4 62.3 14.5 24.2 24.2 24.2 63.3 0 87.5s-63.3 24.2-87.5 0c-14.1-14.1-19-33.2-16.6-51.7l-484.1-484c-19.4 3.7-40.1-0.8-55.2-15.9-24.2-24.2-24.2-63.3 0-87.5 24.2-24.2 63.3-24.2 87.4 0 16 16 20.3 38.3 15.2 58.7l478.5 478.4z m400.3-221.2L844.85 708c-31.6 31.6-87 31.6-118.6 0l-536.9-536.9c-15.8-15.8-24.5-36.9-24.5-59.3s8.7-43.5 24.5-59.3l154.7-154.7c15.8-15.8 36.8-24.5 59.3-24.5s43.5 8.7 59.3 24.5l536.8 536.8c32.8 32.8 32.8 86 0.1 118.7z m-46.1-72.5l-536.8-536.9c-7-7-19.4-7-26.5 0l-154.7 154.7c-3.5 3.5-5.4 8.2-5.4 13.2s2 9.7 5.4 13.2l38.3 38.3 37.3-37.3 46.1 46-37.3 37.3 39.3 39.3L473.75 134l46.1 46-114.6 114.9 34.8 34.8 50.4-50.5 46.1 46.1-50.5 50.4 34.8 34.8 114.6-114.7 46 46.1-114.5 114.7 39 39 46.2-46.1 46 46.1-46.1 46.1 37.4 37.4 101.5-101.4 46 46-101.4 101.4 36.8 36.8c3.5 3.5 8.2 5.4 13.2 5.4s9.7-1.9 13.2-5.4l154.7-154.7c3.5-3.5 5.4-8.2 5.4-13.2s-1.9-9.7-5.4-13.2z"  horiz-adv-x="1024" />

    
    <glyph glyph-name="wenjianjia" unicode="&#59003;" d="M871.936 41.984c0-31.744-25.6-57.344-57.856-57.344H94.208l100.864 474.624c0 31.744 25.6 57.344 57.344 57.344h662.528c31.744 0 57.344-25.6 57.344-57.344l-100.352-417.28zM209.408 559.616h648.192v56.32c0 31.744-25.6 57.344-57.344 57.344H454.656V726.016c0 31.744-25.6 57.344-57.344 57.344H109.056C76.8 783.36 51.2 757.76 51.2 726.016v-683.52l100.864 460.288c0 31.232 25.6 56.832 57.344 56.832z"  horiz-adv-x="1024" />

    
    <glyph glyph-name="tool-spatial-query" unicode="&#58972;" d="M138.34 722.505V871.184c0 8.925-4.79 17.088-12.409 21.55a25.208 25.208 0 0 1-24.816 0C93.496 888.273 88.707 880.11 88.707 871.294v-148.68c0-8.816 4.68-17.088 12.408-21.442 7.62-4.462 17.089-4.462 24.816 0 7.62 4.354 12.409 12.517 12.409 21.334z m0-231.292v148.68c0 8.816-4.68 17.088-12.409 21.442-7.619 4.462-17.088 4.462-24.816 0-7.619-4.463-12.408-12.626-12.408-21.442v-148.68c0-8.816 4.68-17.088 12.408-21.442 7.62-4.462 17.089-4.462 24.816 0 7.62 4.354 12.409 12.626 12.409 21.442z m0-231.29V408.601c0 8.816-4.68 17.088-12.409 21.442-7.619 4.462-17.088 4.462-24.816 0-7.619-4.463-12.408-12.626-12.408-21.442v-148.68c0-8.816 4.68-17.088 12.408-21.442 7.62-4.462 17.089-4.462 24.816 0 7.62 4.354 12.409 12.517 12.409 21.442z m0-231.4V177.31c0 8.816-4.68 17.088-12.409 21.442-7.619 4.462-17.088 4.462-24.816 0-7.619-4.463-12.408-12.626-12.408-21.442v-148.788c0-8.817 4.68-17.089 12.408-21.443 7.62-4.462 17.089-4.462 24.816 0 7.62 4.463 12.409 12.626 12.409 21.443z m694.852 693.982V871.184c0 8.816-4.68 17.088-12.408 21.442-7.619 4.462-17.088 4.462-24.816 0C788.349 888.163 783.56 880 783.56 871.184v-148.68c0-8.816 4.68-17.088 12.408-21.442 7.619-4.462 17.088-4.462 24.816 0 7.62 4.463 12.408 12.626 12.408 21.443z m0-231.292v148.68c0 8.816-4.68 17.088-12.408 21.442-7.619 4.462-17.088 4.462-24.816 0-7.619-4.463-12.408-12.626-12.408-21.442v-148.68c0-8.816 4.68-17.088 12.408-21.442 7.619-4.462 17.088-4.462 24.816 0 7.62 4.354 12.408 12.626 12.408 21.442z m0-231.29V408.601c0 8.816-4.68 17.088-12.408 21.442-7.619 4.462-17.088 4.462-24.816 0-7.619-4.463-12.408-12.626-12.408-21.442v-148.68c0-8.816 4.68-17.088 12.408-21.442 7.619-4.462 17.088-4.462 24.816 0 7.62 4.354 12.408 12.517 12.408 21.442zM501.875 80.44h148.679c8.816 0 17.088 4.68 21.442 12.408 4.463 7.619 4.463 17.088 0 24.816-4.463 7.619-12.626 12.408-21.442 12.408h-148.68c-8.816 0-17.088-4.68-21.441-12.408-4.463-7.62-4.463-17.088 0-24.816 4.353-7.62 12.517-12.408 21.442-12.408z m-231.4 0h148.68c8.815 0 17.087 4.68 21.441 12.408 4.463 7.619 4.463 17.088 0 24.816-4.462 7.619-12.626 12.408-21.442 12.408h-148.68c-8.816 0-17.088-4.68-21.441-12.408-4.463-7.62-4.463-17.088 0-24.816 4.462-7.62 12.625-12.408 21.442-12.408zM39.184 80.44h148.679c8.816 0 17.088 4.68 21.442 12.409 4.463 7.619 4.463 17.088 0 24.816-4.462 7.619-12.626 12.408-21.442 12.408H39.183c-8.816 0-17.088-4.68-21.441-12.408-4.463-7.62-4.463-17.088 0-24.816 4.462-7.62 12.625-12.408 21.442-12.408z m693.982 691.697h148.679c8.816 0 17.088 4.68 21.442 12.408 4.463 7.619 4.463 17.088 0 24.816-4.463 7.62-12.626 12.408-21.442 12.408h-148.68c-8.816 0-17.088-4.68-21.441-12.408-4.463-7.619-4.463-17.088 0-24.816 4.353-7.728 12.517-12.408 21.442-12.408z m-231.291 0h148.679c8.816 0 17.088 4.68 21.442 12.408 4.463 7.619 4.463 17.088 0 24.816-4.463 7.62-12.626 12.408-21.442 12.408h-148.68c-8.816 0-17.088-4.68-21.441-12.408-4.463-7.619-4.463-17.088 0-24.816 4.353-7.728 12.517-12.408 21.442-12.408z m-231.4 0h148.68c8.815 0 17.087 4.68 21.441 12.408 4.463 7.619 4.463 17.088 0 24.816-4.462 7.62-12.626 12.408-21.442 12.408h-148.68c-8.816 0-17.088-4.68-21.441-12.408-4.463-7.619-4.463-17.088 0-24.816 4.462-7.728 12.625-12.408 21.442-12.408z m-231.291 0h148.679c8.816 0 17.088 4.68 21.442 12.408 4.463 7.619 4.463 17.088 0 24.816-4.462 7.62-12.626 12.408-21.442 12.408H39.183c-8.816 0-17.088-4.68-21.441-12.408-4.463-7.619-4.463-17.088 0-24.816 4.462-7.728 12.625-12.408 21.442-12.408zM965.545-16.43l-92.843 90.884 102.639 36.571-306.72 125.605 126.585-305.957L832.43 34.29l93.388-91.537 0.108-0.217c10.776-9.687 27.102-9.796 37.878-0.218 10.884 9.578 12.734 25.905 4.245 37.66-0.654 1.306-1.524 2.503-2.504 3.591z m0 0"  horiz-adv-x="1146" />

    
    <glyph glyph-name="ditufuwuguanli" unicode="&#59005;" d="M1023.967 384.415C1023.967 666.955 794.753 896 512.004 896 229.247 896 0.03 666.957 0.03 384.415c0-260.998 195.585-476.33 448.284-507.663 14.246-3.002 31.597-4.751 52.262-4.751 5.801 0 11.397 0.305 16.8 0.859 280.274 2.878 506.591 230.797 506.591 511.555z m-73.205-7.239c-1.472 25.525-4.845 50.511-9.98 74.793 0.456 8.672 0.58 16.886 0.348 24.523 6.348-29.69 9.697-60.493 9.697-92.077 0.002-2.418-0.026-4.829-0.065-7.239z m-877.593 7.239c0 31.008 3.229 61.262 9.354 90.452 18.951-20.268 63.618-19.79 74.511 10.493 19.49-11.616 45.683-13.73 45.683-36.949 0-76.628 2.729-158.777 72.353-160.047 1.96-0.024 38.827-13.97 56.372-59.475 6.068-15.727 30.064 0 56.38 0 13.137 0 0-22.132 0-69.991 0-47.674 102.782-121.08 102.782-121.08-0.476-31.557 0.82-57.074 3.446-77.46-23.2 0.426-42.753-2.648-58.114-7.877C229.833-11.53 73.17 168.154 73.17 384.415z m546.868-425.112c-2.275 11.138-12.229 17.238-30.387 12.464 14.488 61.702 21.532 96.266 51.78 122.51 43.763 37.936 5.212 80.123-28.092 75.152-26.248-3.965-9.66 32.499-33.09 34.516-23.427 1.96-54.022 48.56-87.74 64.594-17.873 8.488-35.437 31.235-63.002 32.255-24.432 0.947-60.137-20.659-60.137-4.005 0 53.645-5.432 91.925-6.549 107.211-0.9 12.283-8.028 4.136 25 3.343 17.975-0.482 9.195 36.103 26.986 37.533 17.474 1.382 59.111-16.358 69.72-9.287 9.855 6.584 72.445-164.29 72.445-28.244 0 16.143-8.36 44.208 0 59.496 33.063 60.413 64.015 109.65 61.236 116.851-1.578 4.056-33.826 7.404-59.63-1.254-8.708-2.908 2.77-16.547-9.736-19.46-46.863-10.818-88.264 12.635-73.765 34.68 14.846 22.594 68.638 9.857 73.354 55.18 2.714 25.962 4.961 56.03 6.466 78.377 63.069-9.862 56.126 81.85-37.65 91.667C706.961 820.662 867.724 698.14 926.717 528.1c-2.984 2.721-6.455 4.376-10.464 4.78-28.352 70.82-97.172 19.567-73.826-42.898-125.085-96.154-93.067-163.215-51.97-201.619 21.625-20.186 42.242-50.547 55.666-72.35-14.61-42.605 53.835-25.545 87.59 46.757-42.936-148.913-162.718-265.278-313.676-303.467z"  horiz-adv-x="1024" />

    
    <glyph glyph-name="webfuwuqi3" unicode="&#59064;" d="M942.08 306.176c-14.336 34.304-35.84 66.048-62.976 93.184-26.624 26.624-57.856 47.616-93.184 62.976-36.352 15.36-74.752 23.04-114.176 23.04s-77.824-7.68-114.176-23.04c-34.304-14.336-66.048-35.84-93.184-62.976-10.24-10.24-18.944-20.48-27.648-32.256l-2.048-2.048c-12.8-17.408-24.064-37.376-33.28-58.88-15.36-36.352-23.04-74.752-23.04-114.176s7.68-77.824 23.04-114.176c14.336-34.304 35.84-66.048 62.976-93.184 26.624-26.624 57.856-47.616 93.184-62.976 36.352-15.36 74.752-23.04 114.176-23.04 39.424 0 77.824 7.68 114.176 23.04 34.304 14.336 66.048 35.84 93.184 62.976 26.624 26.624 47.616 57.856 62.976 93.184 15.36 36.352 23.04 74.752 23.04 114.176s-7.68 77.824-23.04 114.176z m-107.008-93.184c-1.024 32.768-5.12 63.488-11.776 91.648 22.016 6.144 43.52 13.824 62.464 23.04 22.016-33.792 35.328-73.728 38.4-114.688h-89.088z m-61.44-160.768c-5.12-15.36-11.264-30.72-18.432-44.032-11.776-22.528-25.6-39.936-40.448-52.224-7.168-5.632-14.848-10.24-23.04-13.312v117.76c29.696-1.024 57.344-3.584 81.92-8.192z m38.912 290.816c-5.632 17.92-12.8 35.328-21.504 50.688-5.632 10.752-11.264 20.48-17.92 29.696 28.672-11.776 54.784-29.696 77.312-52.736 3.584-3.584 6.656-6.656 9.728-10.752-14.336-6.144-30.208-11.776-47.616-16.896z m-18.432-130.56h-101.888v73.216c34.304 1.024 64.512 4.608 91.648 9.728 5.632-26.112 9.216-54.272 10.24-82.944z m-101.888 113.664V441.344c7.68-2.56 14.848-7.168 23.04-13.312 14.336-11.264 27.648-29.184 39.936-52.224 7.168-12.8 12.8-26.624 17.408-40.96-25.088-4.608-52.224-7.168-80.384-8.704z m0-224.256v70.144h102.4c-1.024-28.672-4.608-55.296-9.728-79.872-29.184 5.12-60.416 8.192-92.672 9.728z m98.816-112.128c8.192 15.36 15.36 33.28 22.528 53.76 18.944-5.12 34.816-11.264 49.152-17.408-3.584-4.096-7.68-8.704-11.776-12.288-23.04-23.04-49.152-40.96-77.824-53.248 6.144 9.216 12.288 18.944 17.92 29.184z m132.608 182.272c-3.072-39.936-15.872-78.848-36.864-112.64-19.456 9.216-40.448 17.408-62.976 23.552 6.144 28.16 9.728 57.856 11.264 89.088h88.576z m-403.456-89.088c-24.576-6.656-45.568-14.848-63.488-23.552-20.992 33.792-33.792 72.704-36.864 112.64h89.088c1.536-31.232 5.12-60.928 11.264-89.088z m10.752-38.912c5.632-18.432 13.312-36.864 22.528-53.76 5.632-10.752 11.264-20.48 17.92-29.184-29.184 12.288-55.296 30.208-77.824 53.248-4.096 4.096-8.192 8.192-11.776 12.8 13.824 5.632 30.208 11.264 49.152 16.896z m18.432 128h102.4v-70.144c-31.744-1.024-62.976-4.608-92.16-9.728-5.632 24.576-8.704 51.2-10.24 79.872z m-66.048 188.416c3.072 3.584 6.656 7.168 10.24 10.752 22.528 22.528 48.64 40.448 77.312 52.736-6.656-9.216-12.8-18.944-17.92-29.184-8.192-16.384-15.36-33.28-21.504-51.2-17.92 5.12-33.792 10.752-48.128 16.896z m168.448-147.968h-102.4c1.024 28.16 4.608 56.32 10.24 82.944 28.672-5.12 59.392-8.704 91.648-9.728 0.512-11.776 0.512-47.104 0.512-73.216z m-231.424-0.512c3.072 41.472 16.384 81.408 38.4 115.2 17.408-8.704 38.4-16.384 62.464-23.04-6.656-28.16-10.24-59.392-11.776-92.16H420.352z m231.424-150.528v-117.76c-7.68 2.56-14.848 7.168-23.04 13.312-14.336 11.264-27.648 29.184-39.936 52.224-6.656 12.8-12.8 27.136-18.432 44.032 24.576 4.096 52.224 6.656 81.408 8.192z m0 379.904v-114.688c-29.184 1.024-55.808 4.096-80.384 8.192 4.608 13.824 10.752 27.648 17.408 41.472 12.288 22.016 25.6 39.424 39.936 51.712 7.168 6.144 14.848 10.24 23.04 13.312zM738.816 896h-0.512H27.136C12.288 896 0 883.712 0 868.864v-969.728c0-14.848 12.288-27.136 27.136-27.136h372.736c14.848 0 27.136 12.288 27.136 27.136s-12.288 27.136-27.136 27.136H54.784v80.384h262.144c14.848 0 27.136 12.288 27.136 27.136s-12.288 27.136-27.136 27.136H54.784V521.216h683.52c14.848 0 27.136 12.288 27.136 27.136V868.864c1.024 14.848-11.264 27.136-26.624 27.136zM54.784 841.216H711.68v-137.216H54.784V841.216z m0-192H711.68v-73.216H54.784V649.216z"  horiz-adv-x="1024" />

    
    <glyph glyph-name="tuceng3" unicode="&#58993;" d="M921.6 896a102.4 102.4 0 0 0 102.4-102.4v-563.2a102.4 102.4 0 0 0-102.4-102.4h-204.8v64h192a51.2 51.2 0 0 1 50.8416 45.2096l0.3584 5.9904V780.8a51.2 51.2 0 0 1-51.2 51.2H371.2a51.2 51.2 0 0 1-51.2-51.2V588.8H256V793.6a102.4 102.4 0 0 0 102.4 102.4h563.2zM0 640m102.4 0l563.2 0q102.4 0 102.4-102.4l0-563.2q0-102.4-102.4-102.4l-563.2 0q-102.4 0-102.4 102.4l0 563.2q0 102.4 102.4 102.4Z"  horiz-adv-x="1024" />

    
    <glyph glyph-name="yaoganyingxiang" unicode="&#59042;" d="M934.603 738.337L794.82 878.12c-19.505 19.504-50.387 19.504-68.267 0L523.378 674.946c-19.505-19.505-19.505-50.387 0-68.267l55.263-55.263-27.631-27.632-17.88 17.88c-26.006 26.006-60.14 37.384-92.647 37.384-43.886 35.758-100.775 40.635-133.283 8.127-32.508-32.508-27.632-89.397 8.127-133.283 0-34.133 11.378-66.641 37.384-92.648l17.88-17.879-27.632-27.632-55.264 55.264c-19.505 19.505-50.387 19.505-68.266 0L16.254 167.822c-19.505-19.505-19.505-50.387 0-68.266L156.038-40.23c19.505-19.504 50.387-19.504 68.267 0l203.174 203.175c19.505 19.505 19.505 50.387 0 68.267l-47.136 47.136 27.632 27.632 61.765-61.765c16.254 37.384 42.26 74.768 74.768 107.276C577.016 384 614.4 410.006 651.784 426.26l-61.765 61.765 27.632 27.632 47.136-47.136c19.505-19.505 50.388-19.505 68.267 0l203.175 203.174c17.879 17.88 17.879 48.762-1.626 66.642zM887.467 387.25c-3.251 3.252-8.127 6.502-11.378 8.128 0 0-1.626 0-1.626 1.625-3.25 1.626-4.876 3.251-8.126 4.876h-1.626c-79.644 43.886-203.174 13.004-294.197-78.019-92.647-92.647-121.904-214.552-78.019-294.197 1.626-3.25 3.251-4.876 4.876-8.126 0 0 0-1.626 1.626-1.626 3.25-4.876 6.501-8.127 8.127-11.378 34.133-22.755 110.527 6.502 191.797 71.518l-40.635 32.508c-48.762-39.01-87.772-60.14-99.15-50.388-14.628 14.629 34.134 87.772 108.902 162.54s147.911 123.53 162.54 108.902c9.752-9.753-8.127-43.886-42.26-87.772l32.507-40.635c61.765 78.02 89.397 149.537 66.642 182.045zM692.419 169.448c-13.003 9.752-13.003 27.631-1.625 39.01l4.876 4.875c11.378 11.378 29.257 9.753 39.01-1.625l43.885-53.638c9.752-13.003 9.752-32.508-1.625-43.886l14.628 14.629c-11.378-11.378-30.882-13.003-43.885-1.626l-55.264 42.26zM797.615 147.537c-20.692 0-37.92-17.229-39.075-36.782 0-20.692 16.092-36.783 39.075-36.783 20.691 0 39.074 16.091 39.074 36.783-1.138 21.845-18.383 36.782-39.074 36.782M894.163 147.537c0-34.49-13.8-66.657-40.228-90.794-25.291-25.292-58.612-37.937-95.411-37.937v-52.874c105.748 0 189.651 81.595 190.805 181.605h-55.166M991.85 148.675c0-121.823-104.595-221.818-233.31-221.818V-126c158.606 0 288.476 122.978 288.476 274.692H991.85"  horiz-adv-x="1056" />

    
    <glyph glyph-name="duoping" unicode="&#59320;" d="M64 768v-832h320v64H128V768h256V832H64v-64z m896 64h-320v-64h256v-768h64V832z m-320-832h320v-64h-320v64zM480 832h64v-896h-64V832z"  horiz-adv-x="1024" />

    
    <glyph glyph-name="zhandiangis1" unicode="&#58974;" d="M682.666667 42.666667c-106.453333 0-234.88-85.333333-341.333334-85.333334a350.976 350.976 0 0 0-213.333333 85.333334V554.666667a349.141333 349.141333 0 0 1 212.778667-85.333334c106.666667 0 235.093333 85.333333 341.717333 85.333334a351.018667 351.018667 0 0 0 213.333333-85.333334v-512A349.866667 349.866667 0 0 1 682.666667 42.666667z m128 384a162.944 162.944 0 0 1-128 42.666666c-82.901333 0-258.517333-85.333333-341.333334-85.333333a163.626667 163.626667 0 0 0-128 42.666667v-341.333334a162.944 162.944 0 0 1 128-42.666666c82.816 0 258.56 85.333333 341.333334 85.333333a163.285333 163.285333 0 0 0 128-42.666667v341.333334zM341.333333 298.666667h85.333334v-213.333334H341.333333zM597.333333 341.333333h85.333334v-170.666666h-85.333334zM625.450667 513.28c-29.098667-42.24-82.005333-214.613333-113.749334-214.613333s-84.224 171.52-113.322666 214.613333S341.333333 589.653333 341.333333 640a170.666667 170.666667 0 0 0 341.333334 0 222.592 222.592 0 0 0-57.216-126.72zM512 725.333333a85.333333 85.333333 0 0 1-85.333333-85.333333 110.592 110.592 0 0 1 28.544-63.146667c14.549333-21.76 40.789333-107.52 56.661333-107.52s42.325333 86.186667 56.874667 107.52A109.482667 109.482667 0 0 1 597.333333 640a85.333333 85.333333 0 0 1-85.333333 85.333333z"  horiz-adv-x="1024" />

    
    <glyph glyph-name="duoping1" unicode="&#59521;" d="M0 822.848V-128h365.696v73.152H73.152V822.848h292.544V896H0v-73.152zM1024 896h-365.696v-73.152h292.544v-877.696H1024V896z m-365.696-950.848H1024V-128h-365.696v73.152zM475.456 896H548.48v-1024H475.52V896z"  horiz-adv-x="1024" />

    
    <glyph glyph-name="gongjuxiang-xian" unicode="&#59068;" d="M146.285714-54.857143a73.142857 73.142857 0 0 0-73.142857 73.142857V603.428571a73.142857 73.142857 0 0 0 73.142857 73.142858h219.428572V749.714286a73.142857 73.142857 0 0 0 73.142857 73.142857h219.428571a73.142857 73.142857 0 0 0 73.142857-73.142857v-73.142857h219.428572a73.142857 73.142857 0 0 0 73.142857-73.142858v-585.142857a73.142857 73.142857 0 0 0-73.142857-73.142857z m0 73.142857h804.571429V384H146.285714z m804.571429 438.857143V603.428571H146.285714v-146.285714zM658.285714 676.571429V749.714286H438.857143v-73.142857zM402.285714 384h73.142857a73.142857 73.142857 0 0 1 21.211429-51.712 73.142857 73.142857 0 0 1 51.712-21.357714 73.142857 73.142857 0 0 1 73.142857 73.142857h73.142857a146.285714 146.285714 0 0 0-146.285714-146.285714A146.285714 146.285714 0 0 0 402.285714 384z"  horiz-adv-x="1024" />

    
    <glyph glyph-name="juanlian" unicode="&#58980;" d="M966.656 40.448h-416.768v68.608h388.096c9.728 0 17.408 7.68 17.408 17.408V641.536c0 9.728-7.68 17.408-17.408 17.408h-388.096V727.552h416.768c31.744 0 57.344-25.6 57.344-57.344V97.28c0-31.232-25.6-56.832-57.344-56.832zM515.584-128c-18.944 0-34.304 15.36-34.304 34.304V861.696a34.304 34.304 0 0 0 68.608 0v-955.392c0-18.944-15.36-34.304-34.304-34.304zM412.16 109.056h68.608v-68.608H412.16zM412.16 727.552h68.608v-68.608H412.16zM274.944 109.056h68.608v-68.608H274.944zM274.944 727.552h68.608v-68.608H274.944zM137.216 109.056h68.608v-68.608H137.216zM137.216 727.552h68.608v-68.608H137.216zM0 97.792V143.36h68.608v-102.912h-11.264c-31.744 0-57.344 25.6-57.344 57.344zM0 281.088h68.608v-68.608H0zM0 418.304h68.608v-68.608H0zM0 556.032h68.608v-68.608H0zM0 670.208c0 31.744 25.6 57.344 57.344 57.344h11.264V624.64H0v45.568z"  horiz-adv-x="1024" />

    
    <glyph glyph-name="diejiafenxi2" unicode="&#58981;" d="M884.363636 896a139.636364 139.636364 0 0 0 139.636364-139.636364v-744.727272a139.636364 139.636364 0 0 0-139.636364-139.636364H139.636364a139.636364 139.636364 0 0 0-139.636364 139.636364V756.363636a139.636364 139.636364 0 0 0 139.636364 139.636364h744.727272zM249.949091 165.236364H65.163636V11.636364a74.472727 74.472727 0 0 1 67.677091-74.146909L139.636364-62.836364l201.309091-0.046545a472.529455 472.529455 0 0 0-90.996364 228.072727zM730.763636 630.551273V165.236364H315.624727a407.924364 407.924364 0 0 1 110.685091-228.165819L884.363636-62.836364a74.472727 74.472727 0 0 1 74.146909 67.677091L958.836364 11.636364l0.046545 543.278545a407.412364 407.412364 0 0 1-228.072727 75.682909zM665.6 830.836364H139.636364a74.472727 74.472727 0 0 1-74.146909-67.677091L65.163636 756.363636v-525.963636h181.620364l0.093091 3.723636c6.423273 237.428364 187.112727 431.336727 418.722909 458.472728V830.836364zM311.947636 230.4h51.944728l-49.338182 38.306909c-0.930909-8.378182-1.675636-16.896-2.094546-25.460364l-0.465454-12.846545z m17.361455 109.381818l140.706909-109.381818h85.643636l-206.382545 161.978182a406.714182 406.714182 0 0 1-19.968-52.596364zM381.672727 449.861818l279.505455-219.415273h4.468363v68.142546l-242.315636 203.403636a411.461818 411.461818 0 0 1-41.658182-52.130909z m90.437818 96.209455l193.536-162.397091V473.134545l-116.363636 119.668364a409.134545 409.134545 0 0 1-62.650182-36.119273l-14.522182-10.658909z m144.430546 71.074909L665.6 566.551273V626.920727c-11.170909-1.536-22.155636-3.490909-33.000727-5.911272l-16.104728-3.909819zM884.363636 830.836364h-153.6v-135.121455l7.819637-0.186182c78.568727-2.792727 153.832727-24.762182 220.299636-63.208727L958.836364 756.363636a74.472727 74.472727 0 0 1-67.677091 74.146909L884.363636 830.836364z"  horiz-adv-x="1024" />

    
    <glyph glyph-name="shuxingchaxun_s" unicode="&#59290;" d="M96 896h832a96 96 0 0 0 95.552-86.784L1024 800v-384a32 32 0 0 0-63.488-5.76L960 416v384a32 32 0 0 1-26.24 31.488L928 832h-832a32 32 0 0 1-31.488-26.24L64 800v-832a32 32 0 0 1 26.24-31.488L96-64h512a32 32 0 0 0 5.76-63.488L608-128h-512a96 96 0 0 0-95.552 86.784L0-32v832A96 96 0 0 0 86.784 895.552L96 896h832-832z m576-320a288 288 0 0 0 218.24-475.904l113.408-113.344a32 32 0 1 0-45.248-45.248l-115.008 115.008A288 288 0 1 0 672 576z m0-64a224 224 0 1 1 149.504-390.784 7.616 7.616 0 0 0 1.152 1.28l2.816 2.368A224 224 0 0 1 672 512zM321.408 320a356.48 356.48 0 0 1 0-64H224a32 32 0 0 0 0 64h97.408zM672 448A160 160 0 0 0 832 288a32 32 0 0 0-64 0A96 96 0 0 1 672 384a32 32 0 0 0 0 64zM400.448 512a352.512 352.512 0 0 1-42.112-64H224a32 32 0 0 0 0 64h176.448zM800 704a32 32 0 0 0 0-64h-576a32 32 0 0 0 0 64h576z"  horiz-adv-x="1024" />

    
    <glyph glyph-name="suofang" unicode="&#58961;" d="M102.144638 436.349127V512.957606c0 15.321696 10.214464 25.53616 25.53616 25.53616s25.53616-10.214464 25.53616-25.53616V436.349127h76.608478c15.321696 0 25.53616-10.214464 25.53616-25.536159s-10.214464-25.53616-25.53616-25.53616H153.216958v-76.608479c0-15.321696-10.214464-25.53616-25.53616-25.536159s-25.53616 10.214464-25.53616 25.536159V385.276808H25.53616c-15.321696 0-25.53616 10.214464-25.53616 25.53616S10.214464 436.349127 25.53616 436.349127H102.144638z m755.870325-352.399002l158.324189-168.538654c10.214464-10.214464 10.214464-25.53616 0-35.750623-10.214464-10.214464-25.53616-10.214464-35.750623 0L817.157107 53.306733c-71.501247-45.965087-158.32419-76.608479-255.361596-76.608479-163.431421 0-311.541147 86.822943-393.256858 224.718205l45.965088 20.428928c71.501247-122.573566 204.289277-199.182045 347.29177-199.182045 224.718204 0 408.578554 183.860349 408.578554 408.578553s-183.860349 408.578554-408.578554 408.578554C408.578554 844.927681 265.57606 758.104738 199.182045 620.209476L153.216958 640.638404c76.608479 153.216958 234.932668 255.361596 408.578553 255.361596 255.361596 0 459.650873-204.289277 459.650873-459.650873 0-143.002494-61.286783-265.57606-163.431421-352.399002zM434.114713 436.349127h204.289277c15.321696 0 25.53616-10.214464 25.53616-25.536159s-10.214464-25.53616-25.53616-25.53616h-204.289277c-15.321696 0-25.53616 10.214464-25.536159 25.53616s10.214464 25.53616 25.536159 25.536159z"  horiz-adv-x="1026" />

    
    <glyph glyph-name="chajian" unicode="&#58962;" d="M702.836-125.673H104.727c-53.527 0-95.418 44.218-95.418 95.418V116.364c0 11.636 4.655 20.945 13.964 27.927 9.309 6.982 20.945 9.309 30.254 6.982 11.637-2.328 23.273-4.655 32.582-4.655 67.491 0 123.346 55.855 123.346 123.346S153.6 393.309 86.109 393.309c-9.309 0-20.945-2.327-32.582-4.654-11.636-2.328-20.945 0-30.254 6.981S9.309 411.927 9.309 423.564V570.182c0 53.527 44.218 95.418 95.418 95.418h107.055c-2.327 11.636-2.327 23.273-2.327 34.91 0 107.054 86.109 193.163 193.163 193.163s193.164-86.11 193.164-193.164c0-11.636 0-23.273-2.327-34.909h107.054c53.527 0 95.418-44.218 95.418-95.418v-107.055h20.946c107.054 0 193.163-86.109 193.163-193.163S923.927 76.8 816.873 76.8h-20.946v-107.055c4.655-51.2-39.563-95.418-93.09-95.418zM79.127 76.8v-104.727c0-13.964 11.637-25.6 25.6-25.6h598.11c13.963 0 25.6 11.636 25.6 25.6V123.345c0 11.637 4.654 23.273 13.963 27.928 9.31 6.982 20.945 6.982 32.582 4.654 13.963-4.654 27.927-9.309 41.89-9.309 67.492 0 123.346 55.855 123.346 123.346s-55.854 123.345-123.345 123.345c-13.964 0-27.928-2.327-41.891-9.309-11.637-4.655-23.273-2.327-32.582 4.655-9.31 6.981-13.964 16.29-13.964 27.927v153.6c0 13.963-11.636 25.6-25.6 25.6H546.91c-11.636 0-23.273 6.982-30.254 16.29-6.982 9.31-6.982 23.273-2.328 32.583 9.31 18.618 11.637 34.909 11.637 53.527 0 67.49-55.855 123.345-123.346 123.345s-123.345-55.854-123.345-123.345c0-18.618 4.654-37.237 11.636-53.527 4.655-11.637 4.655-23.273-2.327-32.582-6.982-9.31-18.618-16.291-30.255-16.291h-153.6c-13.963 0-25.6-11.637-25.6-25.6v-104.727c109.382 4.654 200.146-83.782 200.146-193.164 0-107.055-86.11-193.164-193.164-193.164-2.327-2.327-4.654-2.327-6.982-2.327z"  horiz-adv-x="1024" />

    
    <glyph glyph-name="zuobiao" unicode="&#58885;" d="M877.478501 524.278857a364.63324 364.63324 0 0 0-42.921191-157.508959 1042.709308 1042.709308 0 0 0-137.032794-203.974102 1808.990393 1808.990393 0 0 0-157.508959-167.353269 37.014605 37.014605 0 0 0-57.49077 0 1345.914054 1345.914054 0 0 0-268.159003 315.017918 544.193453 544.193453 0 0 0-31.108019 60.640949 36.620833 36.620833 0 1 0 66.153762 30.714247 969.07387 969.07387 0 0 1 172.47231-245.320203c26.382751-28.745385 53.553046-56.309453 81.904659-82.692203 3.543952-3.150179 5.906586-5.906586 10.631855 0A1393.166741 1393.166741 0 0 1 762.103189 384.095884a319.743187 319.743187 0 0 1 39.377239 109.862498 270.915409 270.915409 0 0 1-32.289336 167.353269 281.941036 281.941036 0 0 1-250.045472 157.508959A290.604029 290.604029 0 0 1 236.417038 620.359322a315.017918 315.017918 0 0 1-16.144668-95.29292 36.620833 36.620833 0 1 0-73.241666 0A372.114915 372.114915 0 0 0 433.303237 887.337007a361.876833 361.876833 0 0 0 372.508688-144.120697 379.596591 379.596591 0 0 0 71.666576-218.937453zM99.384244-53.779022h822.98431a22.838799 22.838799 0 0 1-5.119041 11.419399l-107.499864 187.829434a35.439516 35.439516 0 0 0 0 39.37724 36.227061 36.227061 0 0 0 61.822266 0q73.635438-127.976029 146.483332-255.952059A36.227061 36.227061 0 0 0 984.584593-127.808233H42.681019a39.37724 39.37724 0 0 0-35.833288 61.428494c48.434005 81.117114 94.111603 163.809317 141.36429 246.107748a39.37724 39.37724 0 0 0 42.527419 21.26371 36.620833 36.620833 0 0 0 22.051255-55.128136c-25.201433-44.102508-50.402867-88.205017-75.604301-132.701298zM512.057716 344.718644a157.508959 157.508959 0 1 0 157.508959 157.508959 157.508959 157.508959 0 0 0-157.508959-157.508959z m0 236.263438a78.754479 78.754479 0 1 1 78.75448-78.754479 78.754479 78.754479 0 0 1-78.75448 78.754479z"  horiz-adv-x="1024" />

    
    <glyph glyph-name="bianji1" unicode="&#58883;" d="M531.556525 663.948943l-426.368366-416.352009-0.65681-120.721722 124.498381 0.689651 425.481671 416.41769a31.165646 31.165646 0 0 0-2.955646 2.56156l-119.99923 117.40483z m46.961932 46.042398l118.849812-116.419615c1.31362-1.31362 2.56156-2.627241 3.612456-4.137904l74.219557 72.577531-122.462268 121.115808-74.219557-73.13582z m-493.757096-802.457907a32.906193 32.906193 0 0 0-0.065681 65.845226H958.253295a32.906193 32.906193 0 0 0 0.065681-65.845226H84.761361z m-45.155704 353.232545c0 9.293865 4.367788 17.766717 10.311921 24.499022l461.96748 451.261473 115.532921 113.890896a36.945576 36.945576 0 0 0 50.771431 0l165.51618-163.61143c13.793015-14.351304 13.793015-36.321606 0-49.753376l-577.43472-565.218049a35.139348 35.139348 0 0 0-24.958789-10.180559l-167.223886-0.755332a34.810943 34.810943 0 0 0-35.336391 34.351176v1.050896l0.821013 164.530964v-0.065681z"  horiz-adv-x="1024" />

    
    <glyph glyph-name="bilichi" unicode="&#58890;" d="M955.84 570.72V265.6h-68.32V470.56H819.2V265.6h-68.32V470.56h-68.16V265.6H614.4V470.56h-68.32V265.6h-68.16V470.56H409.6V265.6h-68.32V470.56h-68.16V265.6H204.8V470.56H136.48V265.6H68.16V570.72H0V197.44h1024V570.72z m0 0"  horiz-adv-x="1024" />

    
    <glyph glyph-name="tuli_" unicode="&#58886;" d="M334.1 600.2h-248c-8.3 0-15.9 4.8-19.5 12.2s-2.6 16.4 2.6 22.8l124 155.1a21.678 21.678 0 0 0 33.8 0l124-155.1c5.2-6.5 6.2-15.4 2.6-22.8-3.6-7.5-11.2-12.2-19.5-12.2zM131 643.4h158.2l-79.1 99-79.1-99zM317.5 325.5H102.7c-11.9 0-21.6 9.7-21.6 21.6v167c0 11.9 9.7 21.6 21.6 21.6h214.8c11.9 0 21.6-9.7 21.6-21.6V347c0-11.9-9.7-21.5-21.6-21.5z m-193.2 43.2h171.6V492.5H124.3v-123.8zM210.1 27.4c-71.1 0-129 57.9-129 129s57.9 129 129 129 129-57.9 129-129-57.9-129-129-129z m0 214.8c-47.3 0-85.8-38.5-85.8-85.8s38.5-85.8 85.8-85.8 85.8 38.5 85.8 85.8-38.5 85.8-85.8 85.8zM926.1 648.4H448.8c-18.2 0-33 14.8-33 33s14.8 33 33 33h477.3c18.2 0 33-14.8 33-33s-14.8-33-33-33zM926.1 375.8H448.8c-18.2 0-33 14.8-33 33s14.8 33 33 33h477.3c18.2 0 33-14.8 33-33s-14.8-33-33-33zM926.1 103.2H448.8c-18.2 0-33 14.8-33 33s14.8 33 33 33h477.3c18.2 0 33-14.8 33-33s-14.8-33-33-33z"  horiz-adv-x="1024" />

    
    <glyph glyph-name="zuoshangjiao" unicode="&#58963;" d="M56.888889 839.111111h910.222222v-910.222222H56.888889V839.111111z m56.888889-56.888889v-796.444444h796.444444V782.222222H113.777778zM170.666667 725.333333h341.333333v-341.333333H170.666667V725.333333z m56.888889-56.888889v-227.555555h227.555555V668.444444H227.555556z"  horiz-adv-x="1024" />

    
    <glyph glyph-name="icon-add-3" unicode="&#58964;" d="M448.00000001 447.99999999V832a63.99999999 63.99999999 0 0 0 127.99999998 0v-384.00000001h384.00000001a63.99999999 63.99999999 0 0 0 0-127.99999998H575.99999999v-384.00000001a63.99999999 63.99999999 0 0 0-127.99999998 0V320.00000001H64a63.99999999 63.99999999 0 0 0 0 127.99999998h384.00000001z"  horiz-adv-x="1024" />

    
    <glyph glyph-name="quanping1" unicode="&#59076;" d="M369 832H81a16 16 0 0 1-16-16v-288a16 16 0 0 1 16-16h56a16 16 0 0 1 16 16V744h216a16 16 0 0 1 16 16V816a16 16 0 0 1-16 16zM656 832h288a16 16 0 0 0 16-16v-288a16 16 0 0 0-16-16h-56a16 16 0 0 0-16 16V744H656a16 16 0 0 0-16 16V816a16 16 0 0 0 16 16zM369-64H81a16 16 0 0 0-16 16V240a16 16 0 0 0 16 16h56a16 16 0 0 0 16-16v-216h216a16 16 0 0 0 16-16v-56a16 16 0 0 0-16-16zM656-64h288a16 16 0 0 1 16 16V240a16 16 0 0 1-16 16h-56a16 16 0 0 1-16-16v-216H656a16 16 0 0 1-16-16v-56a16 16 0 0 1 16-16z"  horiz-adv-x="1024" />

    
    <glyph glyph-name="zuobiao1" unicode="&#58975;" d="M952.1-46.1c-8-11-20.8-17.6-34.4-17.6H106.6c-13.7 0-26.5 6.5-34.6 17.6-8 11.2-10.1 25.3-5.9 38.4l80.8 245.3c5.8 17.5 22.1 29.3 40.5 29.3h76.3c23.5 0 42.6-19.1 42.6-42.6s-19.1-42.5-42.6-42.5h-45.6l-52.8-160.3h693.4l-52.8 160.3h-45.6c-23.5 0-42.6 19-42.6 42.5s19.1 42.6 42.6 42.6h76.3c18.4 0 34.7-11.8 40.3-29.3l80.9-245.3c4.3-13.1 2.1-27.3-5.7-38.4zM802.2 474.8c0-1.3-0.6-2.6-0.6-3.8C769 328.8 540 111 530.3 101.5c-5.1-4.4-11.6-6.9-18-6.9s-12.8 1.8-18 6.9c-9.6 8.9-239.9 227.3-272.5 372.6 0 1.9-0.6 3.3-0.6 4.6-3.9 19-5.8 38.7-5.8 58.3 0 162.6 133.4 294.8 296.9 294.8 163.6 0 297-132.2 296.3-294.8 0-21-1.9-41.9-6.4-62.2z m-78.7 62.3v0.1c0.3 55.1-21.3 107.2-60.6 146.7-19.4 19.6-42.1 35.1-67.6 45.7-26.3 11.2-54.1 16.8-83 16.8-56.5 0-109.8-22-149.9-61.7-40.1-39.7-62-92.2-62-147.8 0-14.1 1.4-28.1 4.1-41.5l1.8-8.1c4.6-16.8 15.8-44.3 42-85.3 21.3-33.1 49.2-70.1 82.8-109.8 29.8-35.1 58.8-66 80.9-88.8 31.2 32.1 61.3 65.2 87.5 96.5 32 38.2 58.3 73.5 78.5 105.1 24.1 38.1 34.5 63.6 39 79.4l2.1 8.9c2.8 13.1 4.4 27.9 4.4 43.7v0.1zM511.9 415.9c-72.8 0-132.5 59.7-132.5 132.5 0 73.1 59.3 132.7 132.5 132.7 73.5 0 132.6-59.2 132.6-132.7 0-73.2-59.6-132.5-132.6-132.5zM545.6 582c-8.9 8.9-20.8 13.7-33.7 13.7-26.1 0-47.4-21.3-47.5-47.4 0-25.7 21.8-47.4 47.4-47.4 26.2 0 47.5 21.3 47.5 47.4 0 12.9-4.9 24.9-13.7 33.7z"  horiz-adv-x="1024" />

    
    <glyph glyph-name="guanbi2" unicode="&#58892;" d="M568.922 387.768L868.29 687.193a39.139 39.139 0 0 1 0 55.145l-1.64 1.64a39.139 39.139 0 0 1-55.09 0l-299.367-299.82-299.425 299.934a39.139 39.139 0 0 1-55.088 0l-1.697-1.64a38.46 38.46 0 0 1 0-55.09l299.48-299.594-299.424-299.48a39.139 39.139 0 0 1 0-55.09l1.64-1.696a39.139 39.139 0 0 1 55.09 0l299.424 299.48L811.56 31.559a39.139 39.139 0 0 1 55.089 0l1.696 1.64a39.139 39.139 0 0 1 0 55.09l-299.48 299.537z"  horiz-adv-x="1024" />

    
    <glyph glyph-name="shezhi1" unicode="&#58965;" d="M934.2976 384c0 44.2368 26.88 83.1488 68.4544 99.1232l21.2992 8.192-5.632 22.0672a519.5776 519.5776 0 0 1-56.7808 137.1648l-11.6224 19.6096-20.8384-9.2672c-13.7216-6.144-28.5696-9.3184-43.6224-9.2672a104.96 104.96 0 0 0-74.8544 31.0272 105.5232 105.5232 0 0 0-21.6576 118.4768l9.2672 20.8896-19.6608 11.6224A522.3936 522.3936 0 0 1 641.4336 890.368l-22.016 5.632-8.192-21.248A105.8304 105.8304 0 0 0 512.0512 806.2464 105.6256 105.6256 0 0 0 412.928 874.7008L404.736 896l-22.0672-5.632C334.4896 878.08 288.3072 858.9824 245.5552 833.5872l-19.6096-11.6224 9.216-20.8384a105.6256 105.6256 0 0 0-21.6576-118.4768 106.752 106.752 0 0 0-118.528-21.76l-20.736 9.216-11.6736-19.5584a516.608 516.608 0 0 1-56.832-137.1648l-5.632-22.016 21.1968-8.192A105.8304 105.8304 0 0 0 89.8048 384c0-44.2368-26.88-83.1488-68.4544-99.1232l-21.2992-8.192 5.632-22.0672c12.288-48.2304 31.3856-94.4128 56.7296-137.1648l11.6736-19.6096 20.8384 9.2672c13.7216 6.144 28.5696 9.3184 43.6224 9.2672a104.96 104.96 0 0 0 74.8032-31.0272c31.3344-31.2832 39.8336-77.824 21.7088-118.4768l-9.3184-20.8384 19.6608-11.6736c42.8032-25.344 89.0368-44.4416 137.216-56.7296l22.0672-5.632 8.192 21.248A105.8816 105.8816 0 0 0 512.0512-38.2464c44.2368 0 83.1488-26.88 99.1232-68.4544l8.192-21.2992 22.0672 5.632c48.2304 12.288 94.4128 31.3856 137.1648 56.7296l19.6096 11.6736-9.2672 20.8384a105.6256 105.6256 0 0 0 21.6576 118.4768 106.9568 106.9568 0 0 0 118.528 21.76l20.7872-9.216 11.6224 19.5584c25.4464 42.752 44.6464 88.9344 56.832 137.1648l5.632 22.0672-21.248 8.192A105.6256 105.6256 0 0 0 934.2976 384z m-6.5024-222.1056a158.0544 158.0544 0 0 1-42.24 5.7344 156.16 156.16 0 0 1-111.2064-46.0288 156.2624 156.2624 0 0 1-40.2944-153.4464 469.7088 469.7088 0 0 0-84.992-35.1744A156.2112 156.2112 0 0 1 512.0512 13.0048c-57.6512 0-109.2096-30.72-136.96-80.0256a470.272 470.272 0 0 0-85.1968 35.2256 158.5152 158.5152 0 0 1-40.2432 153.3952 157.7984 157.7984 0 0 1-153.4464 40.3456 468.5824 468.5824 0 0 0-35.1744 85.0432A156.2624 156.2624 0 0 1 141.1072 384c0 57.6512-30.7712 109.2096-80.0768 136.96a465.152 465.152 0 0 0 35.328 85.1456c13.7216-3.84 27.904-5.7344 42.1888-5.7344a156.16 156.16 0 0 1 111.2064 46.0288 156.2112 156.2112 0 0 1 40.2944 153.4464 468.48 468.48 0 0 0 84.992 35.1744A156.2112 156.2112 0 0 1 512.0512 754.944c57.6512 0 109.2096 30.7712 136.96 80.0768a470.7328 470.7328 0 0 0 85.1968-35.2256 158.5152 158.5152 0 0 1 40.192-153.3952 157.7472 157.7472 0 0 1 153.4464-40.3456c14.5408-27.136 26.3168-55.6032 35.2256-85.0432A156.16 156.16 0 0 1 883.0464 384c0-57.7536 30.72-109.312 80.0256-137.0112a465.92 465.92 0 0 0-35.328-85.0944zM512.0512 537.6c-84.6848 0-153.6-68.9152-153.6-153.6s68.9152-153.6 153.6-153.6 153.6 68.9152 153.6 153.6-68.9152 153.6-153.6 153.6z m0-257.28A103.8336 103.8336 0 0 0 408.3712 384c0 57.1904 46.4896 103.68 103.68 103.68s103.68-46.4896 103.68-103.68A103.8336 103.8336 0 0 0 512.0512 280.32z"  horiz-adv-x="1024" />

    
    <glyph glyph-name="shangyou" unicode="&#58887;" d="M56.888889 839.111111h910.222222v-910.222222H56.888889V839.111111z m56.888889-56.888889v-796.444444h796.444444V782.222222H113.777778zM575.33333357 747.9999997h299.99999971v-299.99999971H575.33333357V747.9999997z m50.0000001-50.0000001v-199.99999951h199.99999951V697.9999996H625.33333367z"  horiz-adv-x="1024" />

    
    <glyph glyph-name="xiazuo" unicode="&#58891;" d="M56.888889 839.111111h910.222222v-910.222222H56.888889V839.111111z m56.888889-56.888889v-796.444444h796.444444V782.222222H113.777778zM148.0000003 321.3333331h299.99999971v-299.99999971H148.0000003V321.3333331z m50.0000001-50.0000001v-199.99999951h199.99999951V271.33333300000004H198.0000004z"  horiz-adv-x="1024" />

    
    <glyph glyph-name="xiayou" unicode="&#58893;" d="M56.888889 839.111111h910.222222v-910.222222H56.888889V839.111111z m56.888889-56.888889v-796.444444h796.444444V782.222222H113.777778zM574.6666669 321.3333331h299.99999971v-299.99999971H574.6666669V321.3333331z m50.0000001-50.0000001v-199.99999951h199.99999951V271.33333300000004H624.666667z"  horiz-adv-x="1024" />

    
    <glyph glyph-name="wanchengchenggong" unicode="&#58966;" d="M935.03 683.372c-28.659 28.662-75.123 28.662-103.78 0l-449.723-449.72L191.26 423.92c-28.66 28.655-75.124 28.655-103.784 0-28.656-28.662-28.656-75.124 0-103.786l242.16-242.156c28.657-28.654 75.123-28.654 103.781 0L935.03 579.596c28.66 28.66 28.66 75.122 0 103.776z"  horiz-adv-x="1024" />

    
    <glyph glyph-name="merge" unicode="&#59092;" d="M657.92 834.56v-345.6h-49.664v295.936h-496.128v-496.128h289.792v-48.64l-339.456 0.512V834.56zM412.16 229.37599999999998l-359.936 0.512V844.8h615.936v-366.08h-70.144v295.936h-475.648v-475.648h289.792v-69.632z m-339.456 21.504l318.976-0.512v28.672h-289.792V795.136h516.608v-295.936h29.184V824.3199999999999h-574.976v-573.44zM353.28-56.32000000000005l-1.024 340.48h49.664l1.024-290.816 495.616 2.048-2.048 494.592-285.696-0.512v50.176l335.36 0.512 2.56-594.432zM343.04-67.072l-1.024 360.96 70.144 0.512 1.024-290.816 475.648 2.048-2.048 474.112-285.696-1.024v70.656l355.84 0.512 2.56-614.4-616.448-2.56z m19.456 340.992l1.024-320 574.976 2.56-2.56 573.44-314.88-0.512v-29.696l285.696 1.024 2.56-515.072-516.608-2.048-1.024 290.816-29.184-0.512z"  horiz-adv-x="1024" />

    
    <glyph glyph-name="zuidahua" unicode="&#59802;" d="M962 800.25C962 824.156 942.312 834 919.11 834H583.015c-18.985 0-34.453-15.469-34.453-34.453s15.468-34.453 34.453-34.453h261.562L556.297 475.406c-13.36-13.36-13.36-33.75 0-47.11 13.36-13.358 33.75-13.358 47.11 0l290.39 291.095v-266.485c0-19.687 15.469-34.453 34.453-34.453s34.453 15.469 34.453 34.453V800.25M62-32.25C62-56.156 81.688-66 104.89-66h336.094c18.985 0 34.454 15.469 34.454 34.453 0 19.688-15.47 34.453-34.454 34.453H180.125l288.281 288.985c13.36 13.359 13.36 33.75 0 47.109-13.36 13.36-33.75 13.36-47.11 0l-290.39-291.094V314.391c0 19.687-15.469 34.453-34.453 34.453S62 333.375 62 314.39V-32.25"  horiz-adv-x="1025" />

    
    <glyph glyph-name="zuixiaohua" unicode="&#59182;" d="M437.86 350.11H101.78a34.42 34.42 0 0 1 0-68.84h261.11L75.2-6.41a33 33 0 0 1 46.61-46.68l289.75 289.75v-265.24a34.42 34.42 0 1 1 68.84 0v344.2c0 25.96-14.87 34.49-42.54 34.49zM927.94 487.8H666.75l287.69 287.68a33 33 0 0 1-46.61 46.68L618.08 532.34V797.58a34.42 34.42 0 0 1-68.84 0v-344.21c0-22 17.21-34.41 42.55-34.41h336.15a34.42 34.42 0 1 1 0 68.84z"  horiz-adv-x="1024" />

    
    <glyph glyph-name="caijian1" unicode="&#58959;" d="M889.6 761.6c6.4-6.4 6.4-12.8 6.4-25.6V64h96c19.2 0 32-12.8 32-32s-12.8-32-32-32H896v-96c0-19.2-12.8-32-32-32s-32 12.8-32 32V0H160c-19.2 0-32 12.8-32 32V704H32C12.8 704 0 716.8 0 736S12.8 768 32 768H128V864c0 19.2 12.8 32 32 32s32-12.8 32-32V768h672c6.4 0 19.2-6.4 25.6-6.4zM832 704H192v-640h640V704z"  horiz-adv-x="1024" />

    
    <glyph glyph-name="moban1" unicode="&#58976;" d="M981.333333 896H42.666667C19.2 896 0 876.8 0 853.333333v-938.666666c0-23.466667 19.2-42.666667 42.666667-42.666667h938.666666c23.466667 0 42.666667 19.2 42.666667 42.666667V853.333333c0 23.466667-19.2 42.666667-42.666667 42.666667zM938.666667 810.666667v-170.666667H85.333333V810.666667h853.333334zM85.333333 554.666667h170.666667v-597.333334H85.333333V554.666667z m256-597.333334V554.666667h597.333334v-597.333334H341.333333z"  horiz-adv-x="1024" />

    
    <glyph glyph-name="qingchu2" unicode="&#58979;" d="M950.228032 546.208946l-166.396506 90.314903 93.182043 197.320656a38.911183 38.911183 0 0 1 0.307194 51.301323 33.279301 33.279301 0 0 1-48.331785 0.819183L725.976741 667.857591 582.414956 745.475161a91.953269 91.953269 0 0 1-43.007097 12.492538 50.789333 50.789333 0 0 1-45.771839-25.804258l-1.228774-2.457549C386.937461 481.288709 82.508654 344.485182 79.334321 343.051612a48.126989 48.126989 0 0 1-26.418646-31.231344c-6.143871-22.732323 5.529484-43.007097 7.884635-46.898215l3.78872-6.041473L620.506956-108.830099c19.455591-12.902129 36.146441-19.148398 50.891731-19.148397a39.320774 39.320774 0 0 1 26.623441 9.318204l1.638366 1.43357C900.667473 87.364181 965.382914 388.106666 971.73158 457.327612c5.324688 59.493151-11.058968 81.099097-21.503548 88.881334z m-39.832764-82.327872c0-0.511989-6.246269-50.584538-27.852215-125.949355-100.349893 52.734893-329.721076 193.941527-404.983495 240.634947 25.599462 34.815269 47.819796 72.600075 66.046613 112.432839 2.457548-0.614387 6.143871-2.047957 11.263763-4.710301l343.442388-185.749699 11.980549-6.451065c0.819183-4.915097 1.638366-14.335699 0.102397-30.207366zM630.439547 128.937708a38.911183 38.911183 0 0 1 0.716785 51.91571 33.279301 33.279301 0 0 1-48.331785 0.819183L476.125988 70.570934a31.743333 31.743333 0 0 1-3.379129-4.095914L310.241472 174.09516l109.258505 79.972721a38.501591 38.501591 0 0 1 9.011011 51.096527 34.098484 34.098484 0 0 1-21.810742 15.359677 32.35772 32.35772 0 0 1-25.599462-5.73428l-122.87742-89.905312a34.815269 34.815269 0 0 1-9.215806-10.239785L128.792482 294.10544c60.619527 30.309763 197.62785 107.415344 308.012732 233.467097 77.515172-48.229387 321.734044-198.959022 425.770259-252.717893-32.664914-93.386839-92.87485-225.889656-196.296678-334.840968a90.519699 90.519699 0 0 0-13.516516 7.475043L532.444805 27.051848l97.994742 101.88586z"  horiz-adv-x="1024" />

    
    <glyph glyph-name="diqiu" unicode="&#59713;" d="M512 896C229.249969 896 0 666.750031 0 384S229.249969-128 512-128 1024 101.249969 1024 384 794.750031 896 512 896z m0-256c-33.713231 0-66.638769 2.977477-98.5088 8.570092 29.932308 120.233354 74.972554 183.422031 98.5088 183.422031 23.536246 0 68.576492-63.188677 98.5088-183.422031a580.608 580.608 0 0 0-98.5088-8.570092z m160.799508 23.315692c-15.549046 63.645538-36.344123 117.255877-60.683816 157.034339a447.330462 447.330462 0 0 0 193.142154-98.414277 542.578215 542.578215 0 0 0-132.458338-58.620062z m-321.599016 0a546.138585 546.138585 0 0 0-132.332307 58.620062 446.716062 446.716062 0 0 0 193.016123 98.304c-24.339692-39.668185-45.024492-93.262769-60.683816-156.924062zM703.424985 415.980308c-1.480862 65.725046-7.656369 127.889723-17.597047 184.461784 60.0064 17.140185 115.775015 42.629908 165.494154 75.193108a445.613292 445.613292 0 0 0 107.078893-259.654892H703.409231z m-637.82597 0a446.070154 446.070154 0 0 0 106.858339 259.544615c49.719138-32.5632 105.598031-57.816615 165.714708-74.972554-9.940677-56.682338-16.116185-118.847015-17.597047-184.572061H65.599015z m318.968123 0c1.496615 63.661292 7.325538 120.453908 15.895631 169.952492 36.107815-6.411815 73.255385-9.940677 111.537231-9.940677 38.171569 0 75.429415 3.418585 111.537231 9.814646 8.570092-49.467077 14.288738-106.275446 15.895631-169.826461H384.551385zM851.337846 92.349046c-49.719138 32.5632-105.487754 58.052923-165.494154 75.193108 9.940677 56.682338 16.116185 118.862769 17.597046 184.461784h254.976a445.613292 445.613292 0 0 0-107.078892-259.654892z m-450.875077 89.7024c-8.554338 49.498585-14.272985 106.2912-15.879877 169.952492h254.739693c-1.480862-63.551015-7.199508-120.359385-15.879877-169.826461a636.392369 636.392369 0 0 1-111.426954 9.814646 638.660923 638.660923 0 0 1-111.537231-9.924923z m-227.879384-89.592123a445.345477 445.345477 0 0 0-106.858339 259.544615h254.976c1.480862-65.725046 7.656369-127.889723 17.597046-184.572061-60.116677-17.140185-115.995569-42.409354-165.714707-74.988308zM512-63.992123c-23.536246 0-68.576492 63.188677-98.5088 183.422031a580.608 580.608 0 0 0 98.5088 8.570092c33.713231 0 66.638769-3.087754 98.5088-8.570092-29.932308-120.233354-74.972554-183.437785-98.5088-183.437785z m100.115692 11.657846c24.339692 39.762708 45.134769 93.357292 60.683816 157.018585a544.720738 544.720738 0 0 0 132.458338-58.509785 446.306462 446.306462 0 0 0-193.142154-98.524554z m-200.231384 0a446.716062 446.716062 0 0 0-193.031877 98.272492 537.946585 537.946585 0 0 0 132.348061 58.635816c15.659323-63.551015 36.344123-117.1456 60.683816-156.908308z"  horiz-adv-x="1024" />

    
    <glyph glyph-name="yulan1" unicode="&#58960;" d="M364.8 0H192c-32 0-64 32-64 64v160c0 12.8-12.8 25.6-25.6 25.6s-25.6-12.8-25.6-25.6V64c0-64 51.2-115.2 115.2-115.2h172.8c12.8 0 25.6 12.8 25.6 25.6 0 19.2-12.8 25.6-25.6 25.6zM102.4 518.4c19.2 0 25.6 12.8 25.6 32V704c0 32 32 64 64 64h160c12.8 0 25.6 12.8 25.6 25.6s-12.8 25.6-32 25.6H192C128 819.2 76.8 768 76.8 704v-160c0-12.8 12.8-25.6 25.6-25.6zM921.6 262.4c-12.8 0-25.6-12.8-25.6-25.6V64c0-32-25.6-57.6-57.6-57.6h-108.8c-12.8 0-25.6-12.8-25.6-25.6s12.8-25.6 25.6-25.6H832c64 0 115.2 51.2 115.2 115.2v172.8c0 6.4-12.8 19.2-25.6 19.2zM819.2 364.8c12.8 19.2 12.8 44.8 0 64-89.6 115.2-192 172.8-307.2 172.8-108.8 0-211.2-57.6-307.2-172.8-12.8-19.2-12.8-44.8 0-64C300.8 249.6 403.2 192 512 192c108.8 0 211.2 57.6 307.2 172.8zM512 249.6c-96 0-179.2 51.2-262.4 147.2C332.8 499.2 416 550.4 512 550.4c96 0 179.2-51.2 262.4-147.2-83.2-108.8-166.4-153.6-262.4-153.6zM832 819.2h-160c-12.8 0-25.6-12.8-25.6-25.6s12.8-25.6 32-25.6H832c32 0 64-32 64-64v-160c0-12.8 12.8-25.6 25.6-25.6s25.6 12.8 25.6 25.6V704c0 64-51.2 115.2-115.2 115.2zM512 512c-64 0-115.2-51.2-115.2-115.2S448 281.6 512 281.6s115.2 51.2 115.2 115.2S576 512 512 512z m0-179.2c-38.4 0-64 32-64 64s32 64 64 64c38.4 0 64-32 64-64s-25.6-64-64-64z"  horiz-adv-x="1024" />

    
    <glyph glyph-name="fanhuidenglu" unicode="&#58991;" d="M977.92-71.68c-11.946667 0-22.186667 8.533333-25.6 20.48C913.066667 150.186667 745.813333 264.533333 489.813333 267.946667v-226.986667c0-10.24-5.12-18.773333-15.36-23.893333-8.533333-3.413333-20.48-1.706667-27.306666 5.12L18.773333 409.6c-5.12 5.12-8.533333 11.946667-8.533333 18.773333s3.413333 13.653333 8.533333 18.773334L448.853333 832.853333c6.826667 6.826667 18.773333 8.533333 27.306667 5.12s15.36-13.653333 15.36-23.893333v-233.813333c288.426667-3.413333 522.24-240.64 522.24-529.066667 0-34.133333-3.413333-68.266667-10.24-100.693333-1.706667-13.653333-11.946667-22.186667-25.6-22.186667zM484.693333 319.146667c226.986667 0 395.946667-87.04 477.866667-238.933334-15.36 249.173333-223.573333 447.146667-477.866667 447.146667h-17.066666c-6.826667 0-13.653333 1.706667-18.773334 6.826667s-8.533333 11.946667-8.533333 18.773333V756.053333L75.093333 428.373333l366.933334-329.386666V293.546667c0 13.653333 10.24 25.6 23.893333 25.6h18.773333z"  horiz-adv-x="1024" />

    
    <glyph glyph-name="duodian" unicode="&#58952;" d="M826.998 577.645c-64.358 0-116.53-52.175-116.53-116.533 0-64.357 52.172-116.533 116.53-116.533 64.364 0 116.533 52.176 116.533 116.533 0 64.358-52.172 116.533-116.533 116.533zM577.796 694.18c0-64.358 52.174-116.532 116.532-116.532s116.532 52.174 116.532 116.532c0 64.358-52.174 116.532-116.532 116.532-64.358 0-116.532-52.174-116.532-116.532zM663.131 461.111c0 64.358-52.172 116.533-116.533 116.533-64.358 0-116.53-52.175-116.53-116.533 0-64.357 52.172-116.533 116.53-116.533 64.364 0 116.533 52.176 116.533 116.533zM692.537 348.161c-64.358 0-116.53-52.175-116.53-116.534 0-64.356 52.172-116.532 116.53-116.532 64.364 0 116.533 52.176 116.533 116.532 0 64.359-52.172 116.534-116.533 116.534zM430.063 306.89c-64.358 0-116.532-52.175-116.532-116.537 0-64.355 52.174-116.531 116.532-116.531 64.363 0 116.532 52.176 116.532 116.531 0 64.363-52.172 116.537-116.532 116.537zM196.997 190.356c-64.358 0-116.531-52.175-116.531-116.534 0-64.356 52.173-116.532 116.531-116.532 64.364 0 116.533 52.176 116.533 116.532 0 64.359-52.172 116.534-116.533 116.534zM134.256 384.013c0-64.358 52.174-116.532 116.532-116.532s116.532 52.174 116.532 116.532c0 64.358-52.174 116.532-116.532 116.532-64.358 0-116.532-52.174-116.532-116.532z"  horiz-adv-x="1024" />

    
    <glyph glyph-name="liebiao1" unicode="&#58954;" d="M332.8 486.4a76.8 76.8 0 0 1 76.8 76.8V768a76.8 76.8 0 0 1-76.8 76.8H128a76.8 76.8 0 0 1-76.8-76.8v-204.8a76.8 76.8 0 0 1 76.8-76.8h204.8z m0-51.2H128a128 128 0 0 0-128 128V768a128 128 0 0 0 128 128h204.8a128 128 0 0 0 128-128v-204.8a128 128 0 0 0-128-128z m640 128V768a76.8 76.8 0 0 1-76.8 76.8h-204.8a76.8 76.8 0 0 1-76.8-76.8v-204.8a76.8 76.8 0 0 1 76.8-76.8h204.8a76.8 76.8 0 0 1 76.8 76.8z m51.2 0a128 128 0 0 0-128-128h-204.8a128 128 0 0 0-128 128V768a128 128 0 0 0 128 128h204.8a128 128 0 0 0 128-128v-204.8zM409.6 0v204.8a76.8 76.8 0 0 1-76.8 76.8H128a76.8 76.8 0 0 1-76.8-76.8v-204.8a76.8 76.8 0 0 1 76.8-76.8h204.8a76.8 76.8 0 0 1 76.8 76.8z m51.2 0a128 128 0 0 0-128-128H128a128 128 0 0 0-128 128v204.8a128 128 0 0 0 128 128h204.8a128 128 0 0 0 128-128v-204.8z m435.2-76.8a76.8 76.8 0 0 1 76.8 76.8v204.8a76.8 76.8 0 0 1-76.8 76.8h-204.8a76.8 76.8 0 0 1-76.8-76.8v-204.8a76.8 76.8 0 0 1 76.8-76.8h204.8z m0-51.2h-204.8a128 128 0 0 0-128 128v204.8a128 128 0 0 0 128 128h204.8a128 128 0 0 0 128-128v-204.8a128 128 0 0 0-128-128z"  horiz-adv-x="1024" />

    
    <glyph glyph-name="liebiao" unicode="&#59040;" d="M451.764706 775.529412h602.352941a30.117647 30.117647 0 0 1 0 60.235294h-602.352941a30.117647 30.117647 0 0 1 0-60.235294zM120.470588 112.941176a120.470588 120.470588 0 1 1 120.470588-120.470588 120.470588 120.470588 0 0 1-120.470588 120.470588z m0-180.705882a60.235294 60.235294 0 1 0 60.235294 60.235294 60.235294 60.235294 0 0 0-60.235294-60.235294z m933.647059 481.882353h-602.352941a30.117647 30.117647 0 0 1 0-60.235294h602.352941a30.117647 30.117647 0 0 1 0 60.235294z m0-421.647059h-602.352941a30.117647 30.117647 0 0 1 0-60.235294h602.352941a30.117647 30.117647 0 0 1 0 60.235294zM120.470588 896a120.470588 120.470588 0 1 1 120.470588-120.470588 120.470588 120.470588 0 0 1-120.470588 120.470588z m0-180.705882a60.235294 60.235294 0 1 0 60.235294 60.235294 60.235294 60.235294 0 0 0-60.235294-60.235294z m0-240.941177a120.470588 120.470588 0 1 1 120.470588-120.470588 120.470588 120.470588 0 0 1-120.470588 120.470588z m0-180.705882a60.235294 60.235294 0 1 0 60.235294 60.235294 60.235294 60.235294 0 0 0-60.235294-60.235294z"  horiz-adv-x="1084" />

    
    <glyph glyph-name="dengzhixianmian" unicode="&#59085;" d="M870.5 777.2H158.4c-27.2 0-49.4-21.9-49.4-48.7v-701.7c0-26.8 22.2-48.7 49.4-48.7h712.1c27.2 0 49.4 21.9 49.4 48.7V728.5c0 26.8-22.3 48.7-49.4 48.7z m-6.4-695.4c0-26.8-22.2-48.7-49.4-48.7L214.2 26c-27.2 0-49.4 29-49.4 55.8V673.5c0 26.8 22.2 48.7 49.4 48.7h600.5c27.2 0 49.4-21.9 49.4-48.7v-591.7zM627.6 729.8s20-184.1-189.9-236.2c0 0-316.3-86.4-285.8-223.5V232s31 126.4 289.6 193.3c0 0 247.8 51.8 259.7 311.6l-73.6-7.1zM326.3 729.8S313.2 569.9 162.6 590v-52.9S356.7 498 388.1 729.8h-61.8zM875.2 420.4s-73.1 65.7-191.5-128.9c0 0-101.4-226.8-314.1-275L214.2 26s300.2 33.4 424.1 305.1c0 0 118.4 215.1 236.9 153.4v-64.1z"  horiz-adv-x="1024" />

    
    <glyph glyph-name="xiangjiao" unicode="&#59010;" d="M941.511111 21.579852a86.091852 86.091852 0 0 0-86.016-85.978074H439.561481a86.091852 86.091852 0 0 0-85.978074 85.978074V188.302222h230.855112a129.21363 129.21363 0 0 1 129.061925 129.024V523.567407h141.994667a86.091852 86.091852 0 0 0 86.016-86.053926v-415.933629zM310.499556 437.513481v-206.203259H168.504889a86.091852 86.091852 0 0 0-86.016 85.978074V733.221926a86.091852 86.091852 0 0 0 86.016 86.091852H584.438519a86.091852 86.091852 0 0 0 85.978074-86.091852v-166.646519H439.561481a129.21363 129.21363 0 0 1-129.061925-129.061926z m43.083851-36.712296v36.712296A86.091852 86.091852 0 0 0 439.561481 523.567407h47.104l-133.12-122.766222z m198.087112 122.766222h91.629037l-289.754075-262.030222v79.265185l198.125038 182.765037z m118.746074-169.225481v-37.05363a86.091852 86.091852 0 0 0-85.978074-85.978074H537.031111l133.347556 123.031704z m-198.352593-123.031704H385.85837l284.558223 257.327408v-74.334815l-198.352593-182.992593z m383.431111 335.265185h-141.994667V733.221926A129.21363 129.21363 0 0 1 584.438519 862.321778H168.504889A129.21363 129.21363 0 0 1 39.405037 733.221926v-415.93363a129.21363 129.21363 0 0 1 129.099852-129.024h141.994667v-166.684444a129.21363 129.21363 0 0 1 129.061925-129.024h415.93363a129.21363 129.21363 0 0 1 129.099852 129.024V437.513481a129.21363 129.21363 0 0 1-129.099852 129.061926z"  horiz-adv-x="1024" />

    
    <glyph glyph-name="guojiaditufenxi" unicode="&#58955;" d="M512 789.333333C288 789.333333 106.666667 608 106.666667 384s181.333333-405.333333 405.333333-405.333333 405.333333 181.333333 405.333333 405.333333S736 789.333333 512 789.333333z m166.4-727.466666c-23.466667-12.8-49.066667-21.333333-74.666667-27.733334-12.8 25.6-44.8 100.266667-40.533333 198.4 19.2-2.133333 40.533333-2.133333 59.733333-2.133333 23.466667 0 44.8 0 66.133334 2.133333 2.133333-74.666667-6.4-145.066667-10.666667-170.666666z m-113.066667 213.333333c4.266667 32 12.8 64 25.6 98.133333 4.266667 0 6.4-2.133333 10.666667-2.133333 17.066667 0 34.133333 4.266667 49.066667 12.8 17.066667-29.866667 27.733333-68.266667 32-108.8-36.266667-4.266667-76.8-4.266667-117.333334 0zM149.333333 384v8.533333l25.6-19.2-19.2-57.6c-4.266667 21.333333-6.4 44.8-6.4 68.266667z m61.866667-36.266667c27.733333-19.2 55.466667-34.133333 83.2-46.933333-38.4-49.066667-64-96-76.8-125.866667C202.666667 194.133333 192 213.33333300000004 181.333333 234.66666699999996c6.4 40.533333 17.066667 78.933333 29.866667 113.066666z m14.933333 40.533334c44.8 104.533333 110.933333 174.933333 179.2 224 55.466667-25.6 87.466667-46.933333 104.533334-59.733334-12.8-19.2-21.333333-42.666667-21.333334-66.133333 0-8.533333 0-14.933333 2.133334-23.466667-68.266667-29.866667-125.866667-78.933333-168.533334-128-32 12.8-64 32-96 53.333334z m305.066667 96c0 38.4 32 70.4 70.4 70.4s70.4-32 70.4-70.4-32-70.4-70.4-70.4-70.4 32-70.4 70.4z m117.333333 102.4c-14.933333 6.4-29.866667 10.666667-46.933333 10.666666-21.333333 0-40.533333-6.4-57.6-17.066666-14.933333 12.8-44.8 34.133333-93.866667 57.6 98.133333 57.6 189.866667 70.4 215.466667 74.666666 29.866667-14.933333 57.6-32 83.2-53.333333-42.666667-21.333333-85.333333-57.6-100.266667-72.533333z m-140.8-166.4c10.666667-14.933333 25.6-27.733333 42.666667-36.266667-14.933333-36.266667-23.466667-72.533333-27.733333-106.666667-51.2 6.4-104.533333 17.066667-157.866667 38.4 38.4 40.533333 85.333333 81.066667 142.933333 104.533334z m174.933334-10.666667c17.066667 17.066667 25.6 40.533333 27.733333 66.133333 29.866667 2.133333 102.4 8.533333 149.333333 4.266667 8.533333-29.866667 12.8-61.866667 12.8-96 0-25.6-2.133333-51.2-8.533333-76.8-21.333333-6.4-72.533333-21.333333-142.933333-27.733333-2.133333 46.933333-14.933333 91.733333-38.4 130.133333z m164.266666 113.066667c-49.066667 2.133333-113.066667-2.133333-140.8-6.4-4.266667 14.933333-12.8 29.866667-23.466666 42.666666 19.2 17.066667 61.866667 51.2 98.133333 66.133334 27.733333-27.733333 49.066667-61.866667 66.133333-102.4zM582.4 740.266667c-40.533333-10.666667-93.866667-29.866667-147.2-59.733334l-32-19.2c-25.6 10.666667-53.333333 21.333333-85.333333 29.866667C373.333333 725.333333 439.466667 746.666667 512 746.666667c23.466667 0 49.066667-2.133333 70.4-6.4z m-307.2-83.2c32-8.533333 61.866667-19.2 87.466667-27.733334-61.866667-49.066667-123.733333-117.333333-170.666667-215.466666-12.8 10.666667-25.6 21.333333-36.266667 32 12.8 83.2 57.6 157.866667 119.466667 211.2z m-27.733333-520.533334c8.533333 21.333333 38.4 81.066667 87.466666 145.066667 61.866667-25.6 123.733333-38.4 183.466667-44.8-4.266667-98.133333 25.6-174.933333 40.533333-211.2-14.933333-2.133333-29.866667-4.266667-46.933333-4.266667-104.533333 0-198.4 44.8-264.533333 115.2zM725.333333 91.73333300000002c4.266667 36.266667 6.4 89.6 4.266667 145.066667 51.2 6.4 93.866667 14.933333 123.733333 23.466667-25.6-68.266667-70.4-128-128-168.533334zM644.266667 484.266667c0 23.466667-19.2 42.666667-42.666667 42.666666s-42.666667-19.2-42.666667-42.666666 19.2-42.666667 42.666667-42.666667 42.666667 19.2 42.666667 42.666667z"  horiz-adv-x="1024" />

    
    <glyph glyph-name="bianji" unicode="&#58956;" d="M439.3 172.3c-15.1 0-29.1 4.6-40.5 13.7-18.6 14.8-26.7 38.5-22.2 65.2l0.7 3.1C409 364.4 412 368.9 414.6 372.9l2 2.6L775 804.7c12.7 15.2 30.9 24.8 50.7 26.6 19.8 2 39.6-3.8 55.1-16.1l51.2-40.8c31.4-24.7 36.9-70.2 12.2-101.6-0.5-0.6-1-1.2-1.4-1.8L583.1 240.8c-3.2-3-7.2-6.8-110.9-61.4l-3.4-1.5c-9.5-3.7-19.4-5.5-29.5-5.6z m-6.7 68.6c-0.8-6.3 0.5-10.5 2.2-11.9s6.1-1.8 12.1 0.2c40.5 21.4 85 45.3 96.9 52.3l354.7 424.6c3.1 3.6 4.5 8.4 4 13.1-0.5 4.8-2.9 9.1-6.7 12.1L844.7 772c-3.8 3-8.6 4.4-13.4 3.9-4.8-0.5-9.2-2.8-12.3-6.5L463.5 343.7c-4.5-12.9-18.6-60.1-30.9-102.8zM456.8 394.4l138-109.8-36-43.2-138 109.9z m316.5 364.2l138-109.8-36-43.2-138 109.9zM776.8-63.7h-608c-57.6 0-104.5 45.8-104.5 102V631.7c0 56.2 46.9 102 104.5 102h342c15.7 0 28.5-12.5 28.5-27.8s-12.8-27.8-28.5-27.8h-342c-26.2 0-47.5-20.8-47.5-46.4v-593.4c0-25.6 21.3-46.4 47.5-46.4h608c26.2 0 47.5 20.8 47.5 46.4V368.7c0 15.4 12.8 27.8 28.5 27.8s28.5-12.5 28.5-27.8v-330.3c0-56.3-46.9-102.1-104.5-102.1z"  horiz-adv-x="1024" />

    
    <glyph glyph-name="diejiafenxi1" unicode="&#59022;" d="M721.790614 896H66.541516C28.649819 896 0 867.350181 0 829.458484v-655.249098c0-37.891697 28.649819-66.541516 66.541516-66.541516h655.249098c37.891697 0 66.541516 28.649819 66.541516 66.541516V829.458484c0 37.891697-28.649819 66.541516-66.541516 66.541516z m-13.862816-145.097473v-498.137184c0-35.119134-28.649819-64.693141-64.693141-64.693141H145.097473c-35.119134 0-64.693141 28.649819-64.693141 64.693141V750.902527c0 35.119134 28.649819 64.693141 64.693141 64.693141h498.137184c35.119134 0 64.693141-29.574007 64.693141-64.693141zM957.458484 660.33213H302.209386c-37.891697 0-66.541516-28.649819-66.541516-66.541516v-655.249098c0-37.891697 28.649819-66.541516 66.541516-66.541516h655.249098c37.891697 0 66.541516 28.649819 66.541516 66.541516V593.790614c0 37.891697-28.649819 66.541516-66.541516 66.541516z m-13.862816-145.097473v-498.137184c0-35.119134-28.649819-64.693141-64.693141-64.693141H380.765343c-35.119134 0-64.693141 28.649819-64.693141 64.693141V515.234657c0 35.119134 28.649819 64.693141 64.693141 64.693141h498.137184c36.043321-0.924188 64.693141-29.574007 64.693141-64.693141z"  horiz-adv-x="1024" />

    
    <glyph glyph-name="gengduo-dianji" unicode="&#58957;" d="M157.538462 738.461538m78.76923 0l157.538462 0q78.769231 0 78.769231-78.76923l0-157.538462q0-78.769231-78.769231-78.769231l-157.538462 0q-78.769231 0-78.76923 78.769231l0 157.538462q0 78.769231 78.76923 78.76923ZM708.923077 803.716106m55.698257-55.698257l111.396515-111.396515q55.698257-55.698257 0-111.396514l-111.396515-111.396515q-55.698257-55.698257-111.396514 0l-111.396515 111.396515q-55.698257 55.698257 0 111.396514l111.396515 111.396515q55.698257 55.698257 111.396514 0ZM157.538462 344.615385m78.76923 0l157.538462 0q78.769231 0 78.769231-78.769231l0-157.538462q0-78.769231-78.769231-78.76923l-157.538462 0q-78.769231 0-78.76923 78.76923l0 157.538462q0 78.769231 78.76923 78.769231ZM551.384615 344.615385m78.769231 0l157.538462 0q78.769231 0 78.76923-78.769231l0-157.538462q0-78.769231-78.76923-78.76923l-157.538462 0q-78.769231 0-78.769231 78.76923l0 157.538462q0 78.769231 78.769231 78.769231Z"  horiz-adv-x="1024" />

    
    <glyph glyph-name="huanchongqufenxi1" unicode="&#60222;" d="M352 416a128 128 0 1 0 0 256 128 128 0 0 0 0-256z m160-320a128 128 0 1 0 0 256 128 128 0 0 0 0-256zM672 384m-160 0a160 160 0 1 1 320 0 160 160 0 1 1-320 0ZM621.12 249.248v0.224c-2.464 14.368-9.216 28.64-20.352 42.816a112.576 112.576 0 0 1-7.52 8.864c-15.68 17.184-34.272 27.84-55.808 32v-0.064l-0.192 0.064a143.232 143.232 0 0 1 28.704-46.592 144.288 144.288 0 0 1 55.168-37.344z m34.08-40.448a144 144 0 1 0-158.4 158.4 176 176 0 1 0 158.4-158.4z m-31.584 5.92a176.352 176.352 0 0 0-120.896 120.896 112 112 0 1 1 120.896-120.896z m31.392 26.272a144 144 0 1 1-126.016 126.016 144.064 144.064 0 0 0 126.016-126.016zM128 800h768a32 32 0 0 0 32-32v-768a32 32 0 0 0-32-32H128a32 32 0 0 0-32 32V768a32 32 0 0 0 32 32z m0-32v-768h768V768H128z m224-368a144 144 0 1 0 0 288 144 144 0 0 0 0-288z m0 32a112 112 0 1 1 0 224 112 112 0 0 1 0-224zM320 576h64v-64H320V576z m320-160h64v-64h-64v64z m-160-160h64v-64h-64v64z"  horiz-adv-x="1024" />

    
    <glyph glyph-name="jiegouwuxiangqing-duodian" unicode="&#59008;" d="M219.428571 245.028571c-43.885714 0-73.142857-36.571429-73.142857-73.142857s36.571429-73.142857 73.142857-73.142857 73.142857 36.571429 73.142858 73.142857-29.257143 73.142857-73.142858 73.142857zM190.171429 391.314286c0-29.257143 14.628571-51.2 36.571428-65.828572 21.942857-14.628571 51.2-14.628571 73.142857 0 21.942857 14.628571 36.571429 36.571429 36.571429 65.828572s-14.628571 51.2-36.571429 65.828571c-21.942857 14.628571-51.2 14.628571-73.142857 0-21.942857-14.628571-36.571429-36.571429-36.571428-65.828571zM482.742857 274.285714c0-43.885714 36.571429-73.142857 73.142857-73.142857s73.142857 36.571429 73.142857 73.142857-36.571429 73.142857-73.142857 73.142857-73.142857-29.257143-73.142857-73.142857zM629.028571 413.257143c0-43.885714 36.571429-73.142857 73.142858-73.142857s73.142857 36.571429 73.142857 73.142857-36.571429 73.142857-73.142857 73.142857-73.142857-29.257143-73.142858-73.142857zM870.4 640c-43.885714 0-73.142857-36.571429-73.142857-73.142857s36.571429-73.142857 73.142857-73.142857c43.885714 0 73.142857 36.571429 73.142857 73.142857s-29.257143 73.142857-73.142857 73.142857zM241.371429 230.4c0-43.885714 36.571429-73.142857 73.142857-73.142857s73.142857 36.571429 73.142857 73.142857-36.571429 73.142857-73.142857 73.142857-73.142857-29.257143-73.142857-73.142857zM314.514286 391.314286c0-43.885714 36.571429-73.142857 73.142857-73.142857s73.142857 36.571429 73.142857 73.142857-36.571429 73.142857-73.142857 73.142857-73.142857-29.257143-73.142857-73.142857zM482.742857 369.371429c0-43.885714 36.571429-73.142857 73.142857-73.142858s73.142857 36.571429 73.142857 73.142858-36.571429 73.142857-73.142857 73.142857-73.142857-29.257143-73.142857-73.142857zM431.542857 603.428571c0-43.885714 36.571429-73.142857 73.142857-73.142857s73.142857 36.571429 73.142857 73.142857-36.571429 73.142857-73.142857 73.142858-73.142857-36.571429-73.142857-73.142858zM716.8 223.085714c0-43.885714 36.571429-73.142857 73.142857-73.142857 43.885714 0 73.142857 36.571429 73.142857 73.142857s-36.571429 73.142857-73.142857 73.142857-73.142857-29.257143-73.142857-73.142857z"  horiz-adv-x="1024" />

    
    <glyph glyph-name="taisenduobianxing1" unicode="&#60303;" d="M128 240.576L233.536 352H128v32h132.256L128 717.28v-476.704zM146.272 768l195.936-124.704L547.968 768H146.304z m463.456 0l-237.824-144.128 342.56-226.912 141.664 178.976L712.384 768h-102.656z m142.624 0l124.32-166.08 19.328 24.384V768h-143.648zM896 522.656l-20.032 26.784-146.816-185.472 61.664-290.016L896 350.784v171.84z m0-261.952l-92.896-244.512 3.424-16.192H896v260.704zM750.432 0l-249.28 102.56V0h249.28z m-281.28 0v106.528L128 1.056V0h341.152zM128 194.048v-159.488l328.224 101.44-180.224 214.272L128 194.048zM676.096 384L333.312 611.04l-35.744 22.752V384h378.528z m-11.104-32H316.352l166.56-198.016L664.96 352zM768 27.36l-67.264 316.288-192.544-209.376L768 27.392zM265.536 654.144L161.088 720.64 265.6 457.344v196.8zM128 800h768a32 32 0 0 0 32-32v-768a32 32 0 0 0-32-32H128a32 32 0 0 0-32 32V768a32 32 0 0 0 32 32z"  horiz-adv-x="1024" />

    
    <glyph glyph-name="diejiafenxi" unicode="&#60341;" d="M96 800m32 0l768 0q32 0 32-32l0-768q0-32-32-32l-768 0q-32 0-32 32l0 768q0 32 32 32ZM896 511.616v-39.712a334.56 334.56 0 0 1-224 71.712V224H352.384a334.56 334.56 0 0 1 71.744-224H384.352a366.304 366.304 0 0 0-64.032 224H128v32h195.104A368.192 368.192 0 0 0 640 572.896V768h32v-192.32a366.304 366.304 0 0 0 224-64.032zM355.392 256H640V540.608A336.224 336.224 0 0 1 355.392 256zM337.44 240H656V558.56A352.096 352.096 0 0 1 337.44 240zM672 575.68V224H320.32C328.512 414.528 481.504 567.52 672 575.68zM640 256V540.608A336.224 336.224 0 0 1 355.392 256H640zM128 800h768a32 32 0 0 0 32-32v-768a32 32 0 0 0-32-32H128a32 32 0 0 0-32 32V768a32 32 0 0 0 32 32z m0-32v-768h768V768H128z"  horiz-adv-x="1024" />

    
    <glyph glyph-name="dengzhimian" unicode="&#59079;" d="M586.606 886.562h16.437a150.784 150.784 0 0 1-16.437 0zM6.292 293.806v21.298c-0.236-6.874-0.22-13.984 0-21.298zM457.135-53.441c146.38 27.007 310.22-141.567 473.871-28.408 193.931 154.622 70.674 335.545 20.292 384.322S825.35 426.486 789.91 527.926s-3.743 292.87-120.489 342.277c-23.264 9.847-45.27 15.242-66.379 16.36h-16.437c-77.547-4.248-143.407-68.488-214.962-184.903-95.557-155.519-141.362-155.519-194.843-173.734-47.456-16.17-165.303-57.193-170.51-212.822v-21.298a396.135 396.135 0 0 1 3.713-42.816C39.183 41.88 310.818-80.434 457.135-53.44z m-254.726 525.37c3.901 1.321 6.874 2.202 14.802 4.719l4.42 1.384c76.996 24.208 125.837 65.357 200.883 187.403C508.524 805.429 567.227 840.852 644.428 808.15c34.039-14.424 50.413-54.944 61.141-147.859 0.944-7.865 1.321-11.404 3.272-29.98 6.858-63.643 11.467-92.444 22.493-123.95 32.01-91.547 83.116-156.463 171.705-242.237 81.48-78.82 103.155-196.211-14.235-290.998-58.986-40.016-109.589-36.178-229.055 4.09-105.861 35.659-149.526 45.112-211.281 33.771-138.42-25.45-351.039 100.764-371.959 250.542-18.026 129.077 26.976 176.597 125.9 210.368zM460.658 72.883c51.452 9.438 87.835 1.573 176.062-28.14 99.553-33.599 141.724-36.76 190.864-3.413 97.838 78.978 79.765 176.8 11.876 242.488-73.835 71.412-116.4 125.507-143.14 201.796-9.186 26.252-13.024 50.256-18.75 103.296-1.573 15.478-1.934 18.372-2.721 24.995-8.934 77.452-22.588 111.208-50.933 123.241-64.334 27.244-113.253-2.265-184.949-118.932C376.49 516.491 335.734 482.2 271.572 462.034l-3.68-1.147c-6.607-2.108-9.076-2.832-12.332-3.933-82.392-28.125-119.892-67.747-104.87-175.275 17.428-124.83 194.654-230 309.968-208.796zM290.055 447.25c2.831 0.96 4.97 1.573 10.727 3.429l3.146 1.007c55.856 17.554 91.327 47.409 145.72 135.935 62.4 101.567 104.995 127.253 160.977 103.533 24.695-10.46 36.571-39.86 44.342-107.276 0.692-5.757 0.96-8.274 2.39-21.754 4.971-46.167 8.306-67.056 16.312-89.911 23.217-66.41 60.292-113.505 124.563-175.653 59.097-57.193 74.81-142.353-10.334-211.092-42.785-29.021-79.498-26.284-166.152 2.973-76.792 25.875-108.535 32.733-153.27 24.491-100.308-18.45-254.553 73.111-269.763 181.756-13.103 93.623 19.567 128.087 91.342 152.578zM468.539 112.947c44.798 8.242 76.478 1.384 153.27-24.491 86.654-29.257 123.367-31.994 166.152-2.973 85.144 68.738 69.43 153.899 10.334 211.092-64.271 62.147-101.346 109.242-124.563 175.653-8.006 22.855-11.34 43.744-16.311 89.91-1.432 13.48-1.7 15.997-2.391 21.754-7.77 67.418-19.647 96.816-44.342 107.277-55.982 23.72-98.578-1.967-160.977-103.533-54.394-88.526-89.864-118.381-145.72-135.936l-3.146-1.006c-5.757-1.825-7.865-2.47-10.727-3.43-71.775-24.49-104.414-58.954-91.342-152.577 15.147-108.645 169.392-200.207 269.763-181.74zM339.414 433.39c2.234 0.755 3.933 1.258 8.463 2.706l2.517 0.786c43.948 13.81 71.853 37.295 114.637 106.962 49.093 79.906 82.612 100.119 126.655 81.464 19.427-8.243 28.77-31.365 34.889-84.406 0.535-4.53 0.755-6.512 1.872-17.114 3.916-36.335 6.543-52.757 12.835-70.783 18.262-52.254 47.425-89.297 97.996-138.2 46.497-44.988 58.86-111.98-8.133-166.074-33.661-22.84-62.54-20.67-130.713 2.343-60.417 20.355-85.333 25.75-120.583 19.27-78.963-14.535-200.333 57.507-212.272 142.982-10.287 73.677 15.384 100.795 71.837 120.064zM489.585 219.782c27.024 4.971 46.12 0.834 92.443-14.77 52.286-17.648 74.433-19.3 100.23-1.793 51.373 41.464 41.888 92.805 6.292 127.332-38.774 37.5-61.142 65.907-75.141 105.97-4.829 13.78-6.842 26.379-9.847 54.236-0.85 8.132-1.022 9.642-1.431 13.119-4.719 40.677-11.86 58.404-26.74 64.711-33.772 14.314-59.474-1.18-97.1-62.446-32.812-53.481-54.22-71.413-87.913-82.015l-1.934-0.597c-3.477-1.101-4.72-1.495-6.481-2.077-43.288-14.77-62.919-35.564-55.054-92.034 9.06-65.545 102.117-120.804 162.676-109.636z"  horiz-adv-x="1036" />

    
    <glyph glyph-name="qiehuan5" unicode="&#58958;" d="M926.2 331.2l-365.5 0.1c-10.3-0.4-20-4.8-27-12.3-7-7.5-10.7-17.5-10.3-27.8v-350.3c-0.9-21.4 15.7-39.4 37.1-40.4h365.6c21 0.7 37.5 18.3 36.9 39.4v351c0.6 21.1-15.6 39-36.8 40.3zM897-33.7H589.3V265.4H897v-299.1zM494.2 856.2c-7 7.6-16.7 12-26.9 12.4H101.9c-21-0.7-37.5-18.3-36.8-39.4v-349.5c-1.2-21.1 14.9-39.1 36-40.3h366.2c10.3 0.4 20 4.8 27 12.3 7 7.5 10.7 17.5 10.3 27.8V828.3c0.3 10.3-3.4 20.3-10.4 27.9z m-55.6-350.9H130.9V802.7h307.6v-297.4zM793.3 591h58.6c1 0 1.9 0.4 2.6 1.2 0.6 0.8 0.9 1.8 0.8 2.7-18.4 110.6-113 193.9-225 198-16.6 3.6-28.9 18.3-29.2 35.4 0.6 20.5 16 35.4 35 35.4 149-8.9 268.5-122.3 285.1-269.7 0.2-1.7 1.6-3 3.3-3H991l-98.9-147.2L793.3 591zM392.7-93.1c-1.2 0-2.4 0.1-3.6 0.2-162.6 9.9-288.5 145.2-286.7 308 0 0.9-0.3 1.8-1 2.4-0.6 0.6-1.5 1-2.4 1H35.5l98.9 147.2 98.9-147.2h-63.1c-1.9 0-3.4-1.5-3.4-3.4-0.3-129.1 100.6-233.3 229.6-237.3 19.3-1.9 33.5-19.4 31.6-38.9-1.9-18.3-17.1-32-35.3-32z"  horiz-adv-x="1024" />

    
    <glyph glyph-name="wodebiaozhu" unicode="&#58940;" d="M636.219838 224.860283v-33.902794H444.397828v33.902794h-33.902794V416.614488h33.902794l479.453318 479.453318 191.82201-191.754205L636.219838 224.860283z m-157.919216 33.902795h124.016422L478.300622 382.711694V258.763078z m61.974308 157.85141l95.944908-95.877102 383.50841 383.576215-95.877102 95.877102-383.576216-383.576215zM67.805589 617.861475v-610.250298c0.067806-69.771951 66.720699-67.737783 135.611177-67.805588h542.444709c68.890478 0.067806 135.543372-1.966362 135.611178 67.805588v339.027944h67.805588v-339.027944c-0.135611-90.9951-121.304198-135.543372-211.146603-135.611177H162.801218C72.891008-127.932194 0.067806-54.159714 0 36.835386V619.217587c0.067806 91.062906 45.700967 201.925043 135.611177 202.060654h406.833532v-67.805588H135.611177c-68.890478-0.067806-67.737783-65.839227-67.805588-135.611178z"  horiz-adv-x="1116" />

    
    <glyph glyph-name="daochu" unicode="&#58941;" d="M979.584 895.36c23.872 0 42.88-19.008 42.88-42.24v-255.616c0-23.872-19.008-42.24-42.88-42.24a42.624 42.624 0 0 0-42.88 42.24V853.12a43.52 43.52 0 0 0 42.88 42.24zM682.048 852.48c0 23.872 19.072 42.88 42.88 42.88h255.36a42.624 42.624 0 1 0 0-85.12h-255.36a42.624 42.624 0 0 0-42.88 42.24zM528.192 401.152a42.88 42.88 0 0 0 0 59.968L949.632 883.136a42.688 42.688 0 0 0 59.968 0 42.88 42.88 0 0 0 0-59.968L588.8 401.152a42.24 42.24 0 0 0-60.608 0zM937.408 405.184v-361.984c0-47.04-38.144-85.248-85.12-85.248H171.392c-46.976 0-85.12 38.208-85.12 85.248V724.992c0 47.04 38.144 85.184 85.12 85.184h364.992c23.104 0 42.24 19.136 42.24 42.24A42.432 42.432 0 0 1 536.32 894.72H171.392a170.368 170.368 0 0 1-170.24-170.432v-681.792a170.368 170.368 0 0 1 170.24-170.432h680.896a170.368 170.368 0 0 1 170.24 170.432V405.184a42.432 42.432 0 0 1-42.24 42.304 41.728 41.728 0 0 1-42.88-42.24z"  horiz-adv-x="1025" />

    
    <glyph glyph-name="print_blue" unicode="&#59141;" d="M915.2 640h-147.2v147.2c0 25.6-19.2 44.8-44.8 44.8h-422.4c-25.6 0-44.8-19.2-44.8-44.8v-147.2h-147.2c-25.6 0-44.8-19.2-44.8-44.8v-428.8c0-19.2 19.2-38.4 44.8-38.4h179.2v64h-140.8c-6.4 0-19.2 12.8-19.2 19.2v345.6c0 12.8 12.8 19.2 19.2 19.2h716.8c19.2 0 32-12.8 32-32v-332.8c0-12.8-12.8-19.2-19.2-19.2h-108.8v-64h147.2c25.6 0 44.8 19.2 44.8 44.8v422.4c0 25.6-19.2 44.8-44.8 44.8zM320 748.8c0 12.8 12.8 19.2 19.2 19.2h332.8c19.2 0 32-12.8 32-32v-96h-384v108.8zM723.2 320h-422.4c-25.6 0-44.8-19.2-44.8-38.4v-307.2c0-19.2 19.2-38.4 44.8-38.4h428.8c25.6 0 44.8 19.2 44.8 38.4v307.2c-6.4 19.2-25.6 38.4-51.2 38.4zM704 19.2c0-12.8-6.4-19.2-19.2-19.2h-345.6c-12.8 0-19.2 6.4-19.2 19.2v217.6c0 12.8 6.4 19.2 19.2 19.2h345.6c12.8 0 19.2-6.4 19.2-19.2v-217.6z"  horiz-adv-x="1024" />

    
    <glyph glyph-name="tuceng" unicode="&#58989;" d="M995.034942 349.071547l-436.179701-197.643926c-40.891847-20.445923-61.33777-20.445923-95.414309 0l-436.179701 197.643926c-20.445923 13.630616-27.261231 54.522463-27.261231 81.783694l68.153078-34.076539 442.995009-204.459234 442.995008 204.459234 68.153078 34.076539c0-20.445923-6.815308-68.153078-27.261231-81.783694z m0 204.459235l-436.179701-197.643927c-40.891847-20.445923-61.33777-20.445923-95.414309 0l-436.179701 197.643927c-34.076539 20.445923-34.076539 74.968386 0 95.41431l436.179701 231.720465c40.891847 20.445923 61.33777 20.445923 95.414309 0l436.179701-231.720465c27.261231-13.630616 27.261231-74.968386 0-95.41431z m-483.886855 286.242928l-442.995009-238.535773 442.995009-184.013311 442.995008 184.013311-442.995008 238.535773z m0-845.098169l442.995008 204.459234 68.153078 34.076539c0-27.261231-6.815308-74.968386-27.261231-81.783693l-436.179701-197.643927c-40.891847-20.445923-61.33777-20.445923-95.414309 0l-436.179701 197.643927c-20.445923 13.630616-27.261231 54.522463-27.261231 81.783693l68.153078-34.076539 442.995009-204.459234z"  horiz-adv-x="1024" />

    
    <glyph glyph-name="huidaochushitai" unicode="&#58942;" d="M571.3 39.7v118c0 32.6-26.6 59-59.3 59s-59.3-26.4-59.3-59v-118h118.6zM173 379.3l-57 0.5c-27.3 0.2-49.3 22.4-49 49.6 0.1 14.4 6.5 28 17.6 37.2l352.6 295.3c40.1 33.6 98.5 34 139.1 0.9L939 467c21.1-17.2 24.2-48.2 6.9-69.2-9.3-11.3-23.2-17.9-37.8-18l-55.9-0.5V89c0-59.8-48.7-108.2-108.8-108.2H281.8C221.7-19.2 173 29.2 173 89V379.3z m457.7-339.6h112.6c27.3 0 49.4 22 49.4 49.2V437.8l87.4 0.7-341.5 278.6c-18.4 15-45 14.8-63.2-0.4L143.3 438.5l89.1-0.7v-348.9c0-27.2 22.1-49.2 49.4-49.2h111.5v118c0 65.2 53.1 118 118.7 118s118.7-52.8 118.7-118v-118z"  horiz-adv-x="1024" />

    
    <glyph glyph-name="daochu1" unicode="&#58973;" d="M880.213333 25.6h-716.8V742.4h318.293334V810.666667H146.346667c-28.16 0-51.2-23.04-51.2-51.2v-750.933334c0-28.16 23.04-51.2 51.2-51.2h750.933333c28.16 0 51.2 23.04 51.2 51.2v346.88h-68.266667V25.6zM914.346667 132.266667c-18.773333 0-34.133333 15.36-34.133334 34.133333v200.533333c0 18.773333 15.36 34.133333 34.133334 34.133334s34.133333-15.36 34.133333-34.133334v-200.533333c0-18.773333-14.933333-34.133333-34.133333-34.133333zM504.746667 742.4h-89.6c-18.773333 0-34.133333 15.36-34.133334 34.133333s15.36 34.133333 34.133334 34.133334h89.6c18.773333 0 34.133333-15.36 34.133333-34.133334s-14.933333-34.133333-34.133333-34.133333zM693.333333 810.666667h220.16c19.2 0 34.986667-15.786667 34.986667-34.986667 0-19.2-15.786667-34.986667-34.986667-34.986667h-220.16c-19.2 0-34.986667 15.786667-34.986666 34.986667 0 19.2 15.36 34.986667 34.986666 34.986667zM948.48 775.68v-220.16c0-19.2-15.786667-34.986667-34.986667-34.986667-19.2 0-34.986667 15.786667-34.986666 34.986667V775.68c0 19.2 15.786667 34.986667 34.986666 34.986667 19.2 0 34.986667-15.786667 34.986667-34.986667zM938.24 800.426667l0.426667-0.426667c13.226667-13.226667 13.226667-34.56 0-47.786667L491.52 305.066667c-13.226667-13.226667-34.56-13.226667-47.786667 0l-0.426666 0.426666c-13.226667 13.226667-13.226667 34.56 0 47.786667L890.453333 800.426667c13.226667 13.226667 34.56 13.226667 47.786667 0z"  horiz-adv-x="1024" />

    
    <glyph glyph-name="biaozhu2" unicode="&#59537;" d="M473.6 839.3728a269.9776 269.9776 0 0 0 85.8112 15.0016c61.696 0 117.0432-14.7456 154.8288-35.1744 37.888-20.48 93.184-35.2256 154.88-35.2256 61.696 0 117.0432 27.136 154.88 47.5648v-387.2768c-37.888-20.48-93.184-47.616-154.88-47.616-61.696 0-117.0432 14.7968-154.88 35.2768-37.8368 20.48-93.1328 35.1744-154.8288 35.1744a269.824 269.824 0 0 1-85.8112-15.0016v-379.0848H394.1888V854.3744c0 23.04 17.7664 41.6256 39.68 41.6256 21.9648 0 39.7312-18.6368 39.7312-41.6256v-15.0016z m0-54.4768v-278.9376a306.9952 306.9952 0 0 0 85.8112 12.3392c66.56 0 131.0208-15.3088 179.2-41.3696 32.768-17.7152 80.384-29.0304 130.56-29.0304 33.1776 0 65.1776 9.216 103.6288 27.648V751.616a297.0624 297.0624 0 0 0-103.68-18.8416c-66.56 0-130.9696 15.36-179.2 41.3696-32.768 17.7152-80.384 29.0304-130.56 29.0304-28.0576 0-56.064-6.3488-85.76-18.2784z m-266.24-609.024c14.08 3.2256 28.416-4.5056 31.9488-17.2544 3.584-12.8-4.9664-25.7024-19.0464-28.928-106.3936-24.4224-167.68-60.8256-167.68-90.88 0-58.7264 200.1408-119.1424 447.1296-119.1424 246.9888 0 447.0784 60.416 447.0784 119.1424 0 29.696-59.904 65.7408-164.5056 90.112-14.08 3.328-22.528 16.2816-18.944 29.0304 3.6352 12.8 17.9712 20.4288 32.0512 17.152 126.1568-29.44 204.032-76.288 204.032-136.2944C999.424-60.416 775.6288-128 499.712-128 223.744-128 0-60.416 0 38.8096c0 60.5696 79.2576 107.7248 207.36 137.0624z"  horiz-adv-x="1024" />

    
    <glyph glyph-name="xianshibiaozhu" unicode="&#59244;" d="M424.448-128a38.17472 38.17472 0 0 0-38.11328 38.13376V670.49472H67.584a37.62176 37.62176 0 0 0-37.51936 37.60128V857.86624A38.17472 38.17472 0 0 0 68.17792 896h887.64416a38.17472 38.17472 0 0 0 38.11328-38.13376v-149.77024a37.45792 37.45792 0 0 0-38.11328-37.60128H637.66528v-761.15968A38.912 38.912 0 0 0 599.01952-128z m136.97024 75.776V704.32768a40.67328 40.67328 0 0 0-0.26624 4.3008 37.72416 37.72416 0 0 0 38.13376 38.11328h318.93504V820.224H105.7792v-73.48224h318.93504A38.17472 38.17472 0 0 0 462.848 708.62848a40.63232 40.63232 0 0 0-0.26624-4.28032V-52.224z"  horiz-adv-x="1024" />

    
    </font>
</defs>
</svg>
